<svg version="1.1" id="Layer_1" xmlns="http://www.w3.org/2000/svg" xmlns:xlink="http://www.w3.org/1999/xlink" x="0px" y="0px"
	 width="100%" viewBox="0 0 2556 236" enable-background="new 0 0 2556 236" xml:space="preserve">
<path fill="#000000" opacity="1.000000" stroke="none" 
	d="
M1504.000000,237.000031 
	C1452.645752,237.000000 1401.291504,237.000000 1349.178467,236.725433 
	C1349.878784,234.866821 1351.169556,233.072540 1352.830811,231.740448 
	C1356.864868,228.505753 1358.158203,224.630722 1358.135254,219.343414 
	C1357.910767,167.555756 1358.191772,115.765335 1357.804321,63.979618 
	C1357.742310,55.696033 1359.480713,49.422340 1366.037109,44.215569 
	C1368.648193,42.142040 1370.851318,40.893360 1374.276611,40.918095 
	C1396.422974,41.078018 1418.571045,41.010441 1440.718628,40.975788 
	C1442.148438,40.973553 1444.131714,41.161083 1444.919067,40.349670 
	C1450.791504,34.297863 1459.508423,29.741205 1457.018799,18.936184 
	C1456.873169,18.303671 1456.911743,17.594334 1457.014893,16.944613 
	C1457.530762,13.695183 1456.169189,11.422031 1453.835938,9.190624 
	C1451.282104,6.748121 1449.256104,3.753825 1447.000000,1.000004 
	C1465.354248,1.000000 1483.708496,1.000000 1502.832764,1.280767 
	C1501.874146,3.727445 1500.379883,6.150920 1498.356934,7.993896 
	C1495.839966,10.286977 1494.903076,12.709866 1494.913818,16.175442 
	C1495.046143,58.500092 1494.985352,100.825317 1495.049561,143.150284 
	C1495.052368,145.007309 1495.202515,147.327744 1496.263306,148.641678 
	C1501.779541,155.473892 1507.795410,160.255020 1517.960449,159.409164 
	C1525.076660,158.817032 1527.884033,154.224930 1531.815674,150.421783 
	C1533.550781,148.743179 1534.846680,145.720184 1534.866455,143.295441 
	C1535.080322,117.135635 1535.402100,90.963814 1534.776855,64.817207 
	C1534.564697,55.948372 1536.237915,48.929375 1543.687012,43.949116 
	C1545.702393,42.601677 1548.188721,41.132355 1550.464478,41.123230 
	C1592.455688,40.954941 1634.447632,40.998348 1676.439453,41.001873 
	C1682.383179,41.002373 1690.997925,49.661465 1690.998413,55.632416 
	C1691.001465,95.124702 1690.742065,134.620026 1691.208130,174.106812 
	C1691.306641,182.448944 1689.358765,188.617737 1682.890747,193.856140 
	C1680.262207,195.985016 1677.999634,197.077820 1674.614746,197.071548 
	C1619.958862,196.970337 1565.302856,196.987213 1510.646973,197.055328 
	C1508.811890,197.057617 1506.553345,197.341705 1505.214600,198.404388 
	C1498.285522,203.904312 1493.261719,210.110229 1494.727661,220.168747 
	C1495.387085,224.693619 1496.130737,228.255981 1499.639404,231.274948 
	C1501.418091,232.805481 1502.566528,235.068314 1504.000000,237.000031 
z"/>
<path fill="#000000" opacity="1.000000" stroke="none" 
	d="
M1172.000000,0.999998 
	C1190.687622,1.000000 1209.375122,1.000000 1228.530029,1.355579 
	C1226.703369,4.267226 1224.374146,6.792878 1222.134155,9.395311 
	C1221.315552,10.346386 1220.116455,11.469391 1220.098145,12.531411 
	C1219.940796,21.594893 1217.788086,31.361996 1227.783936,37.292442 
	C1227.921265,37.373924 1228.029663,37.519199 1228.125366,37.653355 
	C1230.136719,40.472916 1232.830322,41.113377 1236.260132,41.083408 
	C1255.898193,40.911808 1275.549438,41.384411 1295.172485,40.814602 
	C1303.248779,40.580086 1309.453247,42.226280 1314.541382,48.783901 
	C1316.669678,51.527073 1318.096069,53.780334 1318.087524,57.415390 
	C1317.960693,111.173996 1318.083374,164.933304 1317.874878,218.691406 
	C1317.853271,224.246887 1318.853149,228.564774 1323.378296,232.020142 
	C1324.941528,233.213806 1325.812744,235.313950 1327.000000,237.000000 
	C1275.645752,237.000000 1224.291504,237.000000 1172.178467,236.725418 
	C1173.936279,233.805893 1176.497681,231.201370 1178.944824,228.493561 
	C1179.776611,227.573196 1180.889404,226.401825 1180.906616,225.329514 
	C1181.056641,216.064789 1182.804199,206.377365 1172.843018,200.081757 
	C1170.289062,198.467636 1168.311401,196.918961 1165.061157,196.928192 
	C1125.907959,197.039154 1086.751709,196.755005 1047.603027,197.191574 
	C1039.018066,197.287308 1032.298584,195.780579 1026.943481,188.676849 
	C1025.028198,186.136322 1023.932129,184.005722 1023.939697,180.829498 
	C1024.032349,141.842789 1024.219971,102.853539 1023.819092,63.870747 
	C1023.736389,55.822144 1025.172607,49.561855 1031.769287,44.476162 
	C1034.513794,42.360275 1036.753296,40.897106 1040.402832,40.909569 
	C1082.055054,41.051804 1123.707764,41.016773 1165.360352,40.944080 
	C1167.194458,40.940876 1169.449829,40.653011 1170.789795,39.590683 
	C1177.723633,34.093609 1182.733032,27.882402 1181.272461,17.828426 
	C1180.614990,13.302087 1179.864990,9.743456 1176.359741,6.724433 
	C1174.581909,5.193210 1173.433105,2.931480 1172.000000,0.999998 
z"/>
<path fill="#000000" opacity="1.000000" stroke="none" 
	d="
M2109.000000,237.000000 
	C2053.645752,237.000000 1998.291504,237.000000 1942.178467,236.725586 
	C1942.645752,235.104370 1943.820679,233.706421 1945.105957,232.418640 
	C1964.756470,212.729752 1984.467163,193.100388 2003.998169,173.293732 
	C2005.611084,171.658020 2006.861084,168.847412 2006.874390,166.574478 
	C2007.059814,134.925629 2006.945435,103.275116 2007.084717,71.625793 
	C2007.098633,68.487473 2006.056885,66.470116 2003.927490,64.355820 
	C1984.070190,44.638573 1964.297852,24.835567 1944.553711,5.004664 
	C1943.462524,3.908613 1942.840454,2.345613 1942.000000,1.000011 
	C2044.687500,1.000000 2147.375000,1.000000 2250.821289,1.274667 
	C2250.119873,3.134348 2248.829590,4.931931 2247.165771,6.262215 
	C2243.119385,9.497235 2241.843018,13.385073 2241.865723,18.670084 
	C2242.088623,70.323730 2241.797607,121.980309 2242.202148,173.631744 
	C2242.268555,182.084824 2240.733887,188.613373 2233.859619,193.861206 
	C2231.388916,195.747299 2229.356689,197.084213 2226.091797,197.074554 
	C2187.101074,196.959045 2148.106689,196.718948 2109.122314,197.219711 
	C2100.571533,197.329559 2094.192871,195.453827 2088.988281,188.664429 
	C2087.208496,186.342636 2085.860107,184.476288 2085.913574,181.343109 
	C2086.124512,169.016266 2085.181396,156.612305 2086.248535,144.374908 
	C2087.169434,133.814713 2083.934570,126.100937 2075.608154,120.181053 
	C2074.132324,119.131805 2072.269287,118.364037 2070.483643,118.058434 
	C2061.452393,116.512955 2053.915283,118.918480 2048.625977,126.839157 
	C2048.172363,127.518303 2047.299316,127.948013 2046.943970,128.655716 
	C2046.183838,130.169449 2045.107422,131.781891 2045.084595,133.367111 
	C2044.924927,144.528900 2044.938354,155.694794 2045.075684,166.857178 
	C2045.093384,168.302261 2045.782959,170.066330 2046.765015,171.120224 
	C2054.216553,179.116989 2061.718994,187.071823 2069.396729,194.851135 
	C2081.685791,207.303268 2094.158447,219.574234 2106.440674,232.033051 
	C2107.688721,233.299286 2108.165283,235.326096 2109.000000,237.000000 
z"/>
<path fill="#000000" opacity="1.000000" stroke="none" 
	d="
M811.000000,237.000000 
	C721.979126,237.000000 632.958191,237.000000 543.178467,236.725342 
	C543.998047,234.748917 545.385864,232.802017 547.194275,231.396042 
	C551.056213,228.393433 552.191895,224.723724 552.118103,219.832489 
	C551.829041,200.677994 552.446411,181.501373 551.795471,162.364655 
	C551.507019,153.883408 553.266235,147.380112 560.143799,142.135147 
	C562.615662,140.250046 564.648132,138.907669 567.911682,138.924377 
	C594.233643,139.059311 620.565491,138.612991 646.874023,139.221680 
	C655.435242,139.419785 662.006897,137.613174 666.894287,130.581924 
	C667.970642,129.033493 669.687683,127.511902 669.879761,125.836899 
	C670.943237,116.562614 670.583496,107.804123 661.490051,101.762878 
	C659.039307,100.134796 657.075378,98.934937 654.082825,98.944946 
	C626.261108,99.038033 598.438110,98.883247 570.617859,99.107925 
	C565.626404,99.148232 562.143494,97.808777 558.466370,94.281944 
	C553.692749,89.703476 551.042419,85.116486 551.885803,78.333855 
	C552.477417,73.576050 552.463562,68.630127 551.896423,63.866287 
	C550.933594,55.779758 553.195984,49.556133 559.777161,44.465500 
	C562.523682,42.341042 564.773743,40.898914 568.415344,40.911129 
	C610.064575,41.050812 651.714417,41.016800 693.364014,40.943970 
	C695.197693,40.940762 697.451416,40.650497 698.791992,39.588329 
	C705.728088,34.092602 710.730774,27.878918 709.272461,17.827122 
	C708.615723,13.300296 707.863464,9.743176 704.359375,6.724238 
	C702.581848,5.192723 701.433044,2.931393 700.000000,0.999998 
	C736.687561,1.000000 773.375122,1.000000 810.832642,1.280428 
	C810.700623,2.904368 809.980225,4.424930 808.869263,5.564781 
	C792.865417,21.984808 776.813660,38.358139 760.761475,54.731064 
	C757.496338,58.061428 753.953186,61.153767 750.986389,64.727890 
	C749.476807,66.546524 748.137756,69.187416 748.124512,71.464775 
	C747.940613,103.122414 747.941833,134.781799 748.121399,166.439468 
	C748.134338,168.727905 749.302429,171.573151 750.905823,173.202820 
	C768.549805,191.136414 786.464661,208.803665 804.092773,226.752670 
	C806.930847,229.642365 808.723877,233.558395 811.000000,237.000000 
z"/>
<path fill="#000000" opacity="1.000000" stroke="none" 
	d="
M1048.000000,237.000015 
	C1010.979126,237.000000 973.958191,237.000000 936.178467,236.725342 
	C937.936096,233.805984 940.497192,231.201645 942.944275,228.494217 
	C943.776123,227.573914 944.889160,226.403015 944.906738,225.330704 
	C945.058899,216.066162 946.805481,206.379578 936.845520,200.084290 
	C934.292603,198.470688 932.316956,196.919235 929.065369,196.927979 
	C888.249268,197.037796 847.432434,196.918030 806.616882,197.105835 
	C801.627686,197.128784 798.143066,195.808029 794.466064,192.281540 
	C789.692322,187.703156 787.027161,183.114838 787.888672,176.333542 
	C788.471863,171.742905 788.499084,166.952133 787.891907,162.367813 
	C786.767212,153.876328 789.271790,147.377991 796.146606,142.132278 
	C798.619080,140.245651 800.653870,138.908127 803.915588,138.924744 
	C830.237305,139.058990 856.569031,138.612564 882.877319,139.221878 
	C891.439819,139.420212 898.009094,137.609100 902.896301,130.579529 
	C903.972717,129.031418 905.686462,127.509476 905.880005,125.833778 
	C906.951904,116.556107 906.566956,107.806503 897.488037,101.761162 
	C895.037170,100.129189 893.071228,98.935303 890.080078,98.945251 
	C862.258606,99.037788 834.435730,98.882996 806.615784,99.108154 
	C801.623352,99.148560 798.141968,97.806152 794.465149,94.280418 
	C789.690796,89.702164 787.043152,85.113853 787.885864,78.332047 
	C788.477112,73.574188 788.463928,68.628296 787.896301,63.864605 
	C786.932678,55.777313 789.198547,49.555378 795.778137,44.464314 
	C798.524841,42.339020 800.775940,40.899090 804.416809,40.911278 
	C846.065674,41.050720 887.715210,41.016800 929.364441,40.943977 
	C931.197998,40.940769 933.451599,40.650188 934.792236,39.588085 
	C941.728577,34.092476 946.730652,27.878511 945.272583,17.826937 
	C944.615906,13.300025 943.863098,9.743196 940.359314,6.724227 
	C938.581787,5.192640 937.433044,2.931384 936.000000,1.000000 
	C972.687561,1.000000 1009.375183,1.000000 1046.832764,1.280408 
	C1046.701172,2.903888 1045.982422,4.425691 1044.870605,5.563351 
	C1026.987183,23.860941 1009.054260,42.110062 991.130981,60.368614 
	C989.731689,61.794037 988.019104,63.020111 986.990417,64.673676 
	C985.702454,66.744240 984.138794,69.156357 984.125488,71.429436 
	C983.940186,103.075371 984.054077,134.722992 983.915527,166.369400 
	C983.901794,169.505005 984.935791,171.526306 987.068115,173.640701 
	C1004.098572,190.528107 1021.095093,207.451385 1037.920532,224.542435 
	C1041.650024,228.330902 1044.659058,232.828812 1048.000000,237.000015 
z"/>
<path fill="#000000" opacity="1.000000" stroke="none" 
	d="
M464.000000,1.000000 
	C501.354218,1.000000 538.708435,1.000000 576.529907,1.355384 
	C575.995728,2.974932 575.107544,4.352092 573.975952,5.486464 
	C554.219421,25.291555 534.399109,45.033245 514.723999,64.918694 
	C513.299561,66.358345 512.117554,68.794548 512.112061,70.770996 
	C511.970154,121.560463 511.970764,172.350479 512.109131,223.139984 
	C512.114563,225.126999 513.450439,227.295563 514.647339,229.051788 
	C516.551819,231.846405 518.861633,234.364792 521.000000,237.000000 
	C502.312439,237.000000 483.624878,237.000000 464.178497,236.725372 
	C465.936096,233.806091 468.497192,231.201813 470.944183,228.494400 
	C471.776031,227.574051 472.889069,226.403198 472.906769,225.330856 
	C473.059692,216.066071 474.805206,206.379852 464.845612,200.084457 
	C462.292725,198.470795 460.317169,196.919189 457.065491,196.927948 
	C416.249390,197.037796 375.432526,196.918015 334.617004,197.105804 
	C329.627869,197.128769 326.143127,195.808212 322.466125,192.281616 
	C317.692505,187.703232 315.027100,183.114990 315.888702,176.333649 
	C316.471954,171.743027 316.499054,166.952225 315.891907,162.367905 
	C314.767303,153.876465 317.271667,147.378021 324.146545,142.132370 
	C326.619049,140.245789 328.653778,138.908127 331.915527,138.924744 
	C358.237244,139.059006 384.568909,138.612579 410.877228,139.221878 
	C419.439667,139.420197 426.009033,137.609222 430.896332,130.579605 
	C431.972656,129.031433 433.686523,127.509552 433.880096,125.833832 
	C434.951935,116.556183 434.567078,107.806503 425.488068,101.761192 
	C423.037231,100.129288 421.071320,98.935303 418.080139,98.945251 
	C390.258667,99.037796 362.435791,98.882996 334.615845,99.108147 
	C329.623352,99.148552 326.141907,97.806213 322.465149,94.280449 
	C317.690826,89.702202 315.043152,85.113846 315.885864,78.332062 
	C316.477081,73.574196 316.463959,68.628304 315.896301,63.864616 
	C314.932617,55.777328 317.198517,49.555382 323.778137,44.464340 
	C326.524811,42.339054 328.775940,40.899094 332.416779,40.911282 
	C374.065674,41.050716 415.715240,41.016800 457.364502,40.943962 
	C459.198059,40.940754 461.451599,40.650166 462.792236,39.588036 
	C469.728699,34.092487 474.730438,27.878447 473.272491,17.826920 
	C472.615845,13.299994 471.863007,9.743183 468.359283,6.724209 
	C466.581787,5.192619 465.433014,2.931375 464.000000,1.000000 
z"/>
<path fill="#F9F9F9" opacity="1.000000" stroke="none" 
	d="
M1504.468506,237.000031 
	C1502.566528,235.068314 1501.418091,232.805481 1499.639404,231.274948 
	C1496.130737,228.255981 1495.387085,224.693619 1494.727661,220.168747 
	C1493.261719,210.110229 1498.285522,203.904312 1505.214600,198.404388 
	C1506.553345,197.341705 1508.811890,197.057617 1510.646973,197.055328 
	C1565.302856,196.987213 1619.958862,196.970337 1674.614746,197.071548 
	C1677.999634,197.077820 1680.262207,195.985016 1682.890747,193.856140 
	C1689.358765,188.617737 1691.306641,182.448944 1691.208130,174.106812 
	C1690.742065,134.620026 1691.001465,95.124702 1690.998413,55.632416 
	C1690.997925,49.661465 1682.383179,41.002373 1676.439453,41.001873 
	C1634.447632,40.998348 1592.455688,40.954941 1550.464478,41.123230 
	C1548.188721,41.132355 1545.702393,42.601677 1543.687012,43.949116 
	C1536.237915,48.929375 1534.564697,55.948372 1534.776855,64.817207 
	C1535.402100,90.963814 1535.080322,117.135635 1534.866455,143.295441 
	C1534.846680,145.720184 1533.550781,148.743179 1531.815674,150.421783 
	C1527.884033,154.224930 1525.076660,158.817032 1517.960449,159.409164 
	C1507.795410,160.255020 1501.779541,155.473892 1496.263306,148.641678 
	C1495.202515,147.327744 1495.052368,145.007309 1495.049561,143.150284 
	C1494.985352,100.825317 1495.046143,58.500092 1494.913818,16.175442 
	C1494.903076,12.709866 1495.839966,10.286977 1498.356934,7.993896 
	C1500.379883,6.150920 1501.874146,3.727445 1503.301514,1.280767 
	C1557.354248,1.000000 1611.708496,1.000000 1666.241211,1.274418 
	C1667.645874,2.895612 1668.820679,4.293736 1670.105835,5.581445 
	C1689.756470,25.270363 1709.467163,44.899673 1728.998169,64.706314 
	C1730.611084,66.342003 1731.860962,69.152580 1731.874390,71.425514 
	C1732.059937,103.074371 1731.945557,134.724915 1732.084839,166.374237 
	C1732.098633,169.512634 1731.056885,171.529938 1728.927490,173.644302 
	C1709.070068,193.361450 1689.297607,213.164505 1669.553711,232.995560 
	C1668.462646,234.091507 1667.840454,235.654419 1667.000000,236.999985 
	C1612.979126,237.000000 1558.958130,237.000000 1504.468506,237.000031 
z"/>
<path fill="#F9F9F9" opacity="1.000000" stroke="none" 
	d="
M0.999998,228.000000 
	C1.000000,220.979050 1.000000,213.958099 1.355579,206.467178 
	C3.331599,204.643143 5.268408,203.528534 6.510217,201.887894 
	C9.617529,197.782547 13.506698,196.864609 18.547276,196.883133 
	C70.371628,197.073669 122.198410,196.807175 174.020538,197.196564 
	C182.314026,197.258865 188.580750,195.501266 193.796234,188.951675 
	C195.879715,186.335251 197.089233,184.118500 197.078354,180.700699 
	C196.954926,141.873947 196.727051,103.043266 197.213425,64.222221 
	C197.320084,55.709801 195.540817,49.305729 188.755875,44.032253 
	C186.257141,42.090153 184.140747,40.930588 180.942368,40.938366 
	C141.948822,41.033222 102.952057,41.251179 63.963531,40.798908 
	C55.656315,40.702541 49.413074,42.529308 44.192234,49.060177 
	C42.099102,51.678528 40.905239,53.903790 40.921631,57.316212 
	C41.059288,85.977646 41.016323,114.640045 40.959339,143.302032 
	C40.955929,145.017639 40.946682,147.251755 39.953388,148.360947 
	C34.375034,154.590286 29.036205,161.621246 18.915230,159.020874 
	C18.289944,158.860229 17.572706,158.909424 16.923399,159.015274 
	C13.660292,159.547256 11.401201,158.139420 9.171051,155.816849 
	C6.729265,153.273880 3.746825,151.250061 1.000002,149.000000 
	C1.000000,102.979103 1.000000,56.958210 1.356683,10.467231 
	C4.740375,7.482514 8.848994,5.843859 9.000000,1.000000 
	C63.020893,1.000000 117.041786,1.000000 171.241241,1.274421 
	C172.645966,2.895649 173.820694,4.293780 175.105972,5.581573 
	C194.756409,25.270496 214.467209,44.899742 233.998184,64.706337 
	C235.611115,66.342041 236.861053,69.152664 236.874374,71.425606 
	C237.059845,103.074432 236.945557,134.724945 237.084869,166.374237 
	C237.098679,169.512512 236.056854,171.529816 233.927460,173.644165 
	C214.070038,193.361328 194.297806,213.164474 174.553940,232.995499 
	C173.462738,234.091507 172.840515,235.654419 172.000000,237.000000 
	C118.312439,237.000000 64.624878,237.000000 10.758768,236.725525 
	C7.386813,233.634033 4.193405,230.817017 0.999998,228.000000 
z"/>
<path fill="#F9F9F9" opacity="1.000000" stroke="none" 
	d="
M1941.531372,1.000011 
	C1942.840454,2.345613 1943.462524,3.908613 1944.553711,5.004664 
	C1964.297852,24.835567 1984.070190,44.638573 2003.927490,64.355820 
	C2006.056885,66.470116 2007.098633,68.487473 2007.084717,71.625793 
	C2006.945435,103.275116 2007.059814,134.925629 2006.874390,166.574478 
	C2006.861084,168.847412 2005.611084,171.658020 2003.998169,173.293732 
	C1984.467163,193.100388 1964.756470,212.729752 1945.105957,232.418640 
	C1943.820679,233.706421 1942.645752,235.104370 1941.709839,236.725586 
	C1906.645752,237.000000 1871.291504,237.000000 1835.467285,236.644623 
	C1833.994751,235.024109 1833.105469,233.646301 1831.973145,232.510635 
	C1812.324219,212.803268 1792.600098,193.170364 1773.056152,173.359619 
	C1771.436646,171.718109 1770.141357,168.923584 1770.127930,166.656281 
	C1769.939453,134.827408 1769.947632,102.996750 1770.117676,71.167648 
	C1770.129028,69.033363 1771.300537,66.390518 1772.815796,64.857056 
	C1792.609863,44.825603 1812.575317,24.963707 1832.444458,5.006114 
	C1833.536133,3.909515 1834.158936,2.346110 1835.000000,0.999995 
	C1870.354248,1.000000 1905.708496,1.000000 1941.531372,1.000011 
M1811.000000,91.500000 
	C1811.000000,118.997902 1811.328125,146.502090 1810.800903,173.989899 
	C1810.641846,182.285751 1812.448242,188.571198 1819.029785,193.778122 
	C1821.643555,195.846054 1823.845703,197.091309 1827.273804,197.080139 
	C1866.103882,196.953766 1904.937866,196.728317 1943.762207,197.212555 
	C1952.269897,197.318665 1958.686890,195.560623 1963.958374,188.765427 
	C1965.895142,186.268845 1967.070679,184.159393 1967.062744,180.955078 
	C1966.966064,141.958191 1966.749023,102.958076 1967.200928,63.966187 
	C1967.297241,55.659069 1965.473267,49.413731 1958.940308,44.192715 
	C1956.321655,42.099823 1954.095581,40.912514 1950.683716,40.922829 
	C1910.853760,41.043293 1871.021240,41.200985 1831.194702,40.813282 
	C1824.090820,40.744133 1818.965698,42.454983 1814.414917,47.833252 
	C1812.123047,50.542007 1810.841553,52.895611 1810.915039,56.504238 
	C1811.146118,67.832024 1811.000000,79.167503 1811.000000,91.500000 
z"/>
<path fill="#F9F9F9" opacity="1.000000" stroke="none" 
	d="
M2385.000000,1.000005 
	C2420.354248,1.000000 2455.708252,1.000000 2491.241211,1.274430 
	C2496.998779,6.917475 2502.653320,12.209748 2508.141846,17.669231 
	C2523.121338,32.569607 2538.015137,47.556347 2553.000732,62.450645 
	C2554.096191,63.539520 2555.656006,64.161148 2557.000000,64.999977 
	C2557.000000,100.354225 2557.000000,135.708450 2556.644531,171.532730 
	C2555.731689,172.298569 2555.060059,172.480133 2554.633057,172.906448 
	C2534.116211,193.385818 2513.613770,213.879715 2493.153809,234.415817 
	C2492.531494,235.040482 2492.374268,236.128250 2492.000000,237.000031 
	C2456.645752,237.000000 2421.291748,237.000000 2385.468750,236.627930 
	C2383.986816,234.661926 2383.223389,232.819687 2381.923096,231.511246 
	C2362.686279,212.156906 2343.409180,192.842758 2324.044434,173.616776 
	C2321.907227,171.494751 2320.905029,169.462769 2320.918213,166.343918 
	C2321.052490,134.728683 2320.941406,103.112312 2321.123047,71.497490 
	C2321.136230,69.218704 2322.337891,66.391312 2323.943604,64.761726 
	C2343.213623,45.207798 2362.690186,25.857370 2382.014404,6.356772 
	C2383.400146,4.958321 2384.022705,2.803243 2385.000000,1.000005 
M2368.574707,44.949768 
	C2361.995361,49.398697 2360.746582,55.617794 2360.827393,63.315434 
	C2361.212646,99.955009 2361.302246,136.605164 2360.781494,173.241379 
	C2360.655762,182.092239 2362.281738,189.112671 2369.717529,194.084290 
	C2371.730469,195.430023 2374.226562,196.867996 2376.506836,196.877930 
	C2415.481689,197.047974 2454.460205,196.747314 2493.430664,197.196472 
	C2502.033936,197.295639 2509.067871,195.977676 2513.874756,188.512833 
	C2515.273682,186.340408 2516.856934,183.724579 2516.868408,181.304840 
	C2517.054199,142.163681 2516.739014,103.018234 2517.208496,63.881813 
	C2517.308350,55.539780 2515.350586,49.379547 2508.889648,44.143162 
	C2506.262939,42.014191 2504.001465,40.918449 2500.617432,40.927620 
	C2459.476807,41.039116 2418.335938,41.047001 2377.195557,40.914711 
	C2373.739746,40.903595 2371.097900,41.628201 2368.574707,44.949768 
z"/>
<path fill="#F9F9F9" opacity="1.000000" stroke="none" 
	d="
M935.531372,1.000000 
	C937.433044,2.931384 938.581787,5.192640 940.359314,6.724227 
	C943.863098,9.743196 944.615906,13.300025 945.272583,17.826937 
	C946.730652,27.878511 941.728577,34.092476 934.792236,39.588085 
	C933.451599,40.650188 931.197998,40.940769 929.364441,40.943977 
	C887.715210,41.016800 846.065674,41.050720 804.416809,40.911278 
	C800.775940,40.899090 798.524841,42.339020 795.778137,44.464314 
	C789.198547,49.555378 786.932678,55.777313 787.896301,63.864605 
	C788.463928,68.628296 788.477112,73.574188 787.885864,78.332047 
	C787.043152,85.113853 789.690796,89.702164 794.465149,94.280418 
	C798.141968,97.806152 801.623352,99.148560 806.615784,99.108154 
	C834.435730,98.882996 862.258606,99.037788 890.080078,98.945251 
	C893.071228,98.935303 895.037170,100.129189 897.488037,101.761162 
	C906.566956,107.806503 906.951904,116.556107 905.880005,125.833778 
	C905.686462,127.509476 903.972717,129.031418 902.896301,130.579529 
	C898.009094,137.609100 891.439819,139.420212 882.877319,139.221878 
	C856.569031,138.612564 830.237305,139.058990 803.915588,138.924744 
	C800.653870,138.908127 798.619080,140.245651 796.146606,142.132278 
	C789.271790,147.377991 786.767212,153.876328 787.891907,162.367813 
	C788.499084,166.952133 788.471863,171.742905 787.888672,176.333542 
	C787.027161,183.114838 789.692322,187.703156 794.466064,192.281540 
	C798.143066,195.808029 801.627686,197.128784 806.616882,197.105835 
	C847.432434,196.918030 888.249268,197.037796 929.065369,196.927979 
	C932.316956,196.919235 934.292603,198.470688 936.845520,200.084290 
	C946.805481,206.379578 945.058899,216.066162 944.906738,225.330704 
	C944.889160,226.403015 943.776123,227.573914 942.944275,228.494217 
	C940.497192,231.201645 937.936096,233.805984 935.709839,236.725342 
	C894.645752,237.000000 853.291565,237.000000 811.468689,237.000000 
	C808.723877,233.558395 806.930847,229.642365 804.092773,226.752670 
	C786.464661,208.803665 768.549805,191.136414 750.905823,173.202820 
	C749.302429,171.573151 748.134338,168.727905 748.121399,166.439468 
	C747.941833,134.781799 747.940613,103.122414 748.124512,71.464775 
	C748.137756,69.187416 749.476807,66.546524 750.986389,64.727890 
	C753.953186,61.153767 757.496338,58.061428 760.761475,54.731064 
	C776.813660,38.358139 792.865417,21.984808 808.869263,5.564781 
	C809.980225,4.424930 810.700623,2.904368 811.301270,1.280428 
	C852.354248,1.000000 893.708435,1.000000 935.531372,1.000000 
z"/>
<path fill="#F9F9F9" opacity="1.000000" stroke="none" 
	d="
M463.531342,1.000000 
	C465.433014,2.931375 466.581787,5.192619 468.359283,6.724209 
	C471.863007,9.743183 472.615845,13.299994 473.272491,17.826920 
	C474.730438,27.878447 469.728699,34.092487 462.792236,39.588036 
	C461.451599,40.650166 459.198059,40.940754 457.364502,40.943962 
	C415.715240,41.016800 374.065674,41.050716 332.416779,40.911282 
	C328.775940,40.899094 326.524811,42.339054 323.778137,44.464340 
	C317.198517,49.555382 314.932617,55.777328 315.896301,63.864616 
	C316.463959,68.628304 316.477081,73.574196 315.885864,78.332062 
	C315.043152,85.113846 317.690826,89.702202 322.465149,94.280449 
	C326.141907,97.806213 329.623352,99.148552 334.615845,99.108147 
	C362.435791,98.882996 390.258667,99.037796 418.080139,98.945251 
	C421.071320,98.935303 423.037231,100.129288 425.488068,101.761192 
	C434.567078,107.806503 434.951935,116.556183 433.880096,125.833832 
	C433.686523,127.509552 431.972656,129.031433 430.896332,130.579605 
	C426.009033,137.609222 419.439667,139.420197 410.877228,139.221878 
	C384.568909,138.612579 358.237244,139.059006 331.915527,138.924744 
	C328.653778,138.908127 326.619049,140.245789 324.146545,142.132370 
	C317.271667,147.378021 314.767303,153.876465 315.891907,162.367905 
	C316.499054,166.952225 316.471954,171.743027 315.888702,176.333649 
	C315.027100,183.114990 317.692505,187.703232 322.466125,192.281616 
	C326.143127,195.808212 329.627869,197.128769 334.617004,197.105804 
	C375.432526,196.918015 416.249390,197.037796 457.065491,196.927948 
	C460.317169,196.919189 462.292725,198.470795 464.845612,200.084457 
	C474.805206,206.379852 473.059692,216.066071 472.906769,225.330856 
	C472.889069,226.403198 471.776031,227.574051 470.944183,228.494400 
	C468.497192,231.201813 465.936096,233.806091 463.709839,236.725372 
	C423.312439,237.000000 382.624878,237.000000 341.467285,236.644623 
	C339.996735,235.026062 339.109406,233.649979 337.978851,232.516495 
	C318.240692,212.726746 298.432220,193.006775 278.791168,173.121338 
	C277.280273,171.591644 276.127808,168.945587 276.116486,166.811478 
	C275.947906,135.033447 275.941193,103.253914 276.123718,71.476036 
	C276.136810,69.199959 277.351624,66.377930 278.959045,64.747993 
	C298.584839,44.847290 318.401855,25.135275 338.114471,5.319799 
	C339.312836,4.115174 340.048859,2.450588 341.000000,1.000003 
	C381.687561,1.000000 422.375122,1.000000 463.531342,1.000000 
z"/>
<path fill="#000000" opacity="1.000000" stroke="none" 
	d="
M1.000002,149.468658 
	C3.746825,151.250061 6.729265,153.273880 9.171051,155.816849 
	C11.401201,158.139420 13.660292,159.547256 16.923399,159.015274 
	C17.572706,158.909424 18.289944,158.860229 18.915230,159.020874 
	C29.036205,161.621246 34.375034,154.590286 39.953388,148.360947 
	C40.946682,147.251755 40.955929,145.017639 40.959339,143.302032 
	C41.016323,114.640045 41.059288,85.977646 40.921631,57.316212 
	C40.905239,53.903790 42.099102,51.678528 44.192234,49.060177 
	C49.413074,42.529308 55.656315,40.702541 63.963531,40.798908 
	C102.952057,41.251179 141.948822,41.033222 180.942368,40.938366 
	C184.140747,40.930588 186.257141,42.090153 188.755875,44.032253 
	C195.540817,49.305729 197.320084,55.709801 197.213425,64.222221 
	C196.727051,103.043266 196.954926,141.873947 197.078354,180.700699 
	C197.089233,184.118500 195.879715,186.335251 193.796234,188.951675 
	C188.580750,195.501266 182.314026,197.258865 174.020538,197.196564 
	C122.198410,196.807175 70.371628,197.073669 18.547276,196.883133 
	C13.506698,196.864609 9.617529,197.782547 6.510217,201.887894 
	C5.268408,203.528534 3.331599,204.643143 1.355579,205.998596 
	C1.000000,187.312439 1.000000,168.624878 1.000002,149.468658 
M159.000000,95.753891 
	C159.603378,91.975876 157.689316,89.513794 155.383453,86.629181 
	C150.328781,80.305862 144.351395,78.378014 136.381409,78.820442 
	C124.096985,79.502396 111.704132,79.620110 99.439919,78.776253 
	C91.607483,78.237328 87.097092,81.891281 82.319824,86.926163 
	C79.623749,89.767609 78.890877,92.534554 78.936653,96.194855 
	C79.099060,109.181175 79.707985,122.222466 78.764648,135.141937 
	C78.073059,144.613647 80.898132,151.519577 88.372398,156.796616 
	C89.864090,157.849762 91.788910,158.889633 93.523491,158.905609 
	C110.506821,159.061966 127.493004,159.076782 144.475723,158.889969 
	C146.331711,158.869568 148.361069,157.599670 149.985245,156.450348 
	C157.153076,151.378128 159.859329,144.741806 159.227844,135.643326 
	C158.330704,122.717239 159.000000,109.682426 159.000000,95.753891 
z"/>
<path fill="#F9F9F9" opacity="1.000000" stroke="none" 
	d="
M521.468567,237.000000 
	C518.861633,234.364792 516.551819,231.846405 514.647339,229.051788 
	C513.450439,227.295563 512.114563,225.126999 512.109131,223.139984 
	C511.970764,172.350479 511.970154,121.560463 512.112061,70.770996 
	C512.117554,68.794548 513.299561,66.358345 514.723999,64.918694 
	C534.399109,45.033245 554.219421,25.291555 573.975952,5.486464 
	C575.107544,4.352092 575.995728,2.974932 576.998596,1.355384 
	C617.687561,1.000000 658.375122,1.000000 699.531372,0.999998 
	C701.433044,2.931393 702.581848,5.192723 704.359375,6.724238 
	C707.863464,9.743176 708.615723,13.300296 709.272461,17.827122 
	C710.730774,27.878918 705.728088,34.092602 698.791992,39.588329 
	C697.451416,40.650497 695.197693,40.940762 693.364014,40.943970 
	C651.714417,41.016800 610.064575,41.050812 568.415344,40.911129 
	C564.773743,40.898914 562.523682,42.341042 559.777161,44.465500 
	C553.195984,49.556133 550.933594,55.779758 551.896423,63.866287 
	C552.463562,68.630127 552.477417,73.576050 551.885803,78.333855 
	C551.042419,85.116486 553.692749,89.703476 558.466370,94.281944 
	C562.143494,97.808777 565.626404,99.148232 570.617859,99.107925 
	C598.438110,98.883247 626.261108,99.038033 654.082825,98.944946 
	C657.075378,98.934937 659.039307,100.134796 661.490051,101.762878 
	C670.583496,107.804123 670.943237,116.562614 669.879761,125.836899 
	C669.687683,127.511902 667.970642,129.033493 666.894287,130.581924 
	C662.006897,137.613174 655.435242,139.419785 646.874023,139.221680 
	C620.565491,138.612991 594.233643,139.059311 567.911682,138.924377 
	C564.648132,138.907669 562.615662,140.250046 560.143799,142.135147 
	C553.266235,147.380112 551.507019,153.883408 551.795471,162.364655 
	C552.446411,181.501373 551.829041,200.677994 552.118103,219.832489 
	C552.191895,224.723724 551.056213,228.393433 547.194275,231.396042 
	C545.385864,232.802017 543.998047,234.748917 542.709839,236.725342 
	C535.979065,237.000000 528.958069,237.000000 521.468567,237.000000 
z"/>
<path fill="#000000" opacity="1.000000" stroke="none" 
	d="
M340.531342,1.000003 
	C340.048859,2.450588 339.312836,4.115174 338.114471,5.319799 
	C318.401855,25.135275 298.584839,44.847290 278.959045,64.747993 
	C277.351624,66.377930 276.136810,69.199959 276.123718,71.476036 
	C275.941193,103.253914 275.947906,135.033447 276.116486,166.811478 
	C276.127808,168.945587 277.280273,171.591644 278.791168,173.121338 
	C298.432220,193.006775 318.240692,212.726746 337.978851,232.516495 
	C339.109406,233.649979 339.996735,235.026062 340.998596,236.644623 
	C284.979095,237.000000 228.958206,237.000000 172.468658,237.000000 
	C172.840515,235.654419 173.462738,234.091507 174.553940,232.995499 
	C194.297806,213.164474 214.070038,193.361328 233.927460,173.644165 
	C236.056854,171.529816 237.098679,169.512512 237.084869,166.374237 
	C236.945557,134.724945 237.059845,103.074432 236.874374,71.425606 
	C236.861053,69.152664 235.611115,66.342041 233.998184,64.706337 
	C214.467209,44.899742 194.756409,25.270496 175.105972,5.581573 
	C173.820694,4.293780 172.645966,2.895649 171.709900,1.274421 
	C228.020889,1.000000 284.041779,1.000000 340.531342,1.000003 
z"/>
<path fill="#000000" opacity="1.000000" stroke="none" 
	d="
M1834.531372,0.999995 
	C1834.158936,2.346110 1833.536133,3.909515 1832.444458,5.006114 
	C1812.575317,24.963707 1792.609863,44.825603 1772.815796,64.857056 
	C1771.300537,66.390518 1770.129028,69.033363 1770.117676,71.167648 
	C1769.947632,102.996750 1769.939453,134.827408 1770.127930,166.656281 
	C1770.141357,168.923584 1771.436646,171.718109 1773.056152,173.359619 
	C1792.600098,193.170364 1812.324219,212.803268 1831.973145,232.510635 
	C1833.105469,233.646301 1833.994751,235.024109 1834.998535,236.644623 
	C1779.312378,237.000000 1723.624878,237.000000 1667.468628,236.999985 
	C1667.840454,235.654419 1668.462646,234.091507 1669.553711,232.995560 
	C1689.297607,213.164505 1709.070068,193.361450 1728.927490,173.644302 
	C1731.056885,171.529938 1732.098633,169.512634 1732.084839,166.374237 
	C1731.945557,134.724915 1732.059937,103.074371 1731.874390,71.425514 
	C1731.860962,69.152580 1730.611084,66.342003 1728.998169,64.706314 
	C1709.467163,44.899673 1689.756470,25.270363 1670.105835,5.581445 
	C1668.820679,4.293736 1667.645874,2.895612 1666.709961,1.274418 
	C1722.687622,1.000000 1778.375122,1.000000 1834.531372,0.999995 
z"/>
<path fill="#F9F9F9" opacity="1.000000" stroke="none" 
	d="
M1048.468628,237.000015 
	C1044.659058,232.828812 1041.650024,228.330902 1037.920532,224.542435 
	C1021.095093,207.451385 1004.098572,190.528107 987.068115,173.640701 
	C984.935791,171.526306 983.901794,169.505005 983.915527,166.369400 
	C984.054077,134.722992 983.940186,103.075371 984.125488,71.429436 
	C984.138794,69.156357 985.702454,66.744240 986.990417,64.673676 
	C988.019104,63.020111 989.731689,61.794037 991.130981,60.368614 
	C1009.054260,42.110062 1026.987183,23.860941 1044.870605,5.563351 
	C1045.982422,4.425691 1046.701172,2.903888 1047.301392,1.280408 
	C1088.354248,1.000000 1129.708496,1.000000 1171.531372,0.999998 
	C1173.433105,2.931480 1174.581909,5.193210 1176.359741,6.724433 
	C1179.864990,9.743456 1180.614990,13.302087 1181.272461,17.828426 
	C1182.733032,27.882402 1177.723633,34.093609 1170.789795,39.590683 
	C1169.449829,40.653011 1167.194458,40.940876 1165.360352,40.944080 
	C1123.707764,41.016773 1082.055054,41.051804 1040.402832,40.909569 
	C1036.753296,40.897106 1034.513794,42.360275 1031.769287,44.476162 
	C1025.172607,49.561855 1023.736389,55.822144 1023.819092,63.870747 
	C1024.219971,102.853539 1024.032349,141.842789 1023.939697,180.829498 
	C1023.932129,184.005722 1025.028198,186.136322 1026.943481,188.676849 
	C1032.298584,195.780579 1039.018066,197.287308 1047.603027,197.191574 
	C1086.751709,196.755005 1125.907959,197.039154 1165.061157,196.928192 
	C1168.311401,196.918961 1170.289062,198.467636 1172.843018,200.081757 
	C1182.804199,206.377365 1181.056641,216.064789 1180.906616,225.329514 
	C1180.889404,226.401825 1179.776611,227.573196 1178.944824,228.493561 
	C1176.497681,231.201370 1173.936279,233.805893 1171.709717,236.725418 
	C1130.979126,237.000000 1089.958130,237.000000 1048.468628,237.000015 
z"/>
<path fill="#F9F9F9" opacity="1.000000" stroke="none" 
	d="
M1327.468506,237.000000 
	C1325.812744,235.313950 1324.941528,233.213806 1323.378296,232.020142 
	C1318.853149,228.564774 1317.853271,224.246887 1317.874878,218.691406 
	C1318.083374,164.933304 1317.960693,111.173996 1318.087524,57.415390 
	C1318.096069,53.780334 1316.669678,51.527073 1314.541382,48.783901 
	C1309.453247,42.226280 1303.248779,40.580086 1295.172485,40.814602 
	C1275.549438,41.384411 1255.898193,40.911808 1236.260132,41.083408 
	C1232.830322,41.113377 1230.136719,40.472916 1228.125366,37.653355 
	C1228.029663,37.519199 1227.921265,37.373924 1227.783936,37.292442 
	C1217.788086,31.361996 1219.940796,21.594893 1220.098145,12.531411 
	C1220.116455,11.469391 1221.315552,10.346386 1222.134155,9.395311 
	C1224.374146,6.792878 1226.703369,4.267226 1228.998535,1.355579 
	C1301.354248,1.000000 1373.708496,1.000000 1446.531372,1.000004 
	C1449.256104,3.753825 1451.282104,6.748121 1453.835938,9.190624 
	C1456.169189,11.422031 1457.530762,13.695183 1457.014893,16.944613 
	C1456.911743,17.594334 1456.873169,18.303671 1457.018799,18.936184 
	C1459.508423,29.741205 1450.791504,34.297863 1444.919067,40.349670 
	C1444.131714,41.161083 1442.148438,40.973553 1440.718628,40.975788 
	C1418.571045,41.010441 1396.422974,41.078018 1374.276611,40.918095 
	C1370.851318,40.893360 1368.648193,42.142040 1366.037109,44.215569 
	C1359.480713,49.422340 1357.742310,55.696033 1357.804321,63.979618 
	C1358.191772,115.765335 1357.910767,167.555756 1358.135254,219.343414 
	C1358.158203,224.630722 1356.864868,228.505753 1352.830811,231.740448 
	C1351.169556,233.072540 1349.878784,234.866821 1348.709717,236.725433 
	C1341.979004,237.000000 1334.958130,237.000000 1327.468506,237.000000 
z"/>
<path fill="#F9F9F9" opacity="1.000000" stroke="none" 
	d="
M2109.468750,237.000000 
	C2108.165283,235.326096 2107.688721,233.299286 2106.440674,232.033051 
	C2094.158447,219.574234 2081.685791,207.303268 2069.396729,194.851135 
	C2061.718994,187.071823 2054.216553,179.116989 2046.765015,171.120224 
	C2045.782959,170.066330 2045.093384,168.302261 2045.075684,166.857178 
	C2044.938354,155.694794 2044.924927,144.528900 2045.084595,133.367111 
	C2045.107422,131.781891 2046.183838,130.169449 2046.943970,128.655716 
	C2047.299316,127.948013 2048.172363,127.518303 2048.625977,126.839157 
	C2053.915283,118.918480 2061.452393,116.512955 2070.483643,118.058434 
	C2072.269287,118.364037 2074.132324,119.131805 2075.608154,120.181053 
	C2083.934570,126.100937 2087.169434,133.814713 2086.248535,144.374908 
	C2085.181396,156.612305 2086.124512,169.016266 2085.913574,181.343109 
	C2085.860107,184.476288 2087.208496,186.342636 2088.988281,188.664429 
	C2094.192871,195.453827 2100.571533,197.329559 2109.122314,197.219711 
	C2148.106689,196.718948 2187.101074,196.959045 2226.091797,197.074554 
	C2229.356689,197.084213 2231.388916,195.747299 2233.859619,193.861206 
	C2240.733887,188.613373 2242.268555,182.084824 2242.202148,173.631744 
	C2241.797607,121.980309 2242.088623,70.323730 2241.865723,18.670084 
	C2241.843018,13.385073 2243.119385,9.497235 2247.165771,6.262215 
	C2248.829590,4.931931 2250.119873,3.134348 2251.290039,1.274667 
	C2258.020996,1.000000 2265.041992,1.000000 2272.241455,1.274689 
	C2273.878418,3.132714 2275.169189,4.924769 2276.828613,6.257901 
	C2280.854736,9.492189 2282.161133,13.358541 2282.136475,18.647297 
	C2281.906006,67.914528 2282.037842,117.183395 2281.880371,166.451126 
	C2281.873047,168.734116 2280.696045,171.579819 2279.092529,173.205322 
	C2259.339600,193.229294 2239.393799,213.062729 2219.550781,232.998291 
	C2218.460693,234.093552 2217.839600,235.655380 2217.000000,237.000000 
	C2181.312500,237.000000 2145.625000,237.000000 2109.468750,237.000000 
z"/>
<path fill="#000000" opacity="1.000000" stroke="none" 
	d="
M2217.468750,237.000000 
	C2217.839600,235.655380 2218.460693,234.093552 2219.550781,232.998291 
	C2239.393799,213.062729 2259.339600,193.229294 2279.092529,173.205322 
	C2280.696045,171.579819 2281.873047,168.734116 2281.880371,166.451126 
	C2282.037842,117.183395 2281.906006,67.914528 2282.136475,18.647297 
	C2282.161133,13.358541 2280.854736,9.492189 2276.828613,6.257901 
	C2275.169189,4.924769 2273.878418,3.132714 2272.709961,1.274689 
	C2310.020752,1.000000 2347.041748,1.000000 2384.531250,1.000005 
	C2384.022705,2.803243 2383.400146,4.958321 2382.014404,6.356772 
	C2362.690186,25.857370 2343.213623,45.207798 2323.943604,64.761726 
	C2322.337891,66.391312 2321.136230,69.218704 2321.123047,71.497490 
	C2320.941406,103.112312 2321.052490,134.728683 2320.918213,166.343918 
	C2320.905029,169.462769 2321.907227,171.494751 2324.044434,173.616776 
	C2343.409180,192.842758 2362.686279,212.156906 2381.923096,231.511246 
	C2383.223389,232.819687 2383.986816,234.661926 2385.000000,236.627930 
	C2329.312500,237.000000 2273.625000,237.000000 2217.468750,237.000000 
z"/>
<path fill="#000000" opacity="1.000000" stroke="none" 
	d="
M2492.468750,237.000031 
	C2492.374268,236.128250 2492.531494,235.040482 2493.153809,234.415817 
	C2513.613770,213.879715 2534.116211,193.385818 2554.633057,172.906448 
	C2555.060059,172.480133 2555.731689,172.298569 2556.644531,172.001389 
	C2557.000000,193.593475 2557.000000,215.186935 2557.000000,237.000000 
	C2535.646240,237.000000 2514.291992,237.000000 2492.468750,237.000031 
z"/>
<path fill="#000000" opacity="1.000000" stroke="none" 
	d="
M2557.000000,64.531319 
	C2555.656006,64.161148 2554.096191,63.539520 2553.000732,62.450645 
	C2538.015137,47.556347 2523.121338,32.569607 2508.141846,17.669231 
	C2502.653320,12.209748 2496.998779,6.917475 2491.709961,1.274430 
	C2513.593018,1.000000 2535.185791,1.000000 2557.000000,1.000000 
	C2557.000000,22.020378 2557.000000,43.041531 2557.000000,64.531319 
z"/>
<path fill="#000000" opacity="1.000000" stroke="none" 
	d="
M0.999998,228.491058 
	C4.193405,230.817017 7.386813,233.634033 10.290111,236.725525 
	C7.082646,237.000000 4.165292,237.000000 1.000000,237.000000 
	C1.000000,234.330002 1.000000,231.656052 0.999998,228.491058 
z"/>
<path fill="#000000" opacity="1.000000" stroke="none" 
	d="
M8.505266,1.000000 
	C8.848994,5.843859 4.740375,7.482514 1.356683,9.998573 
	C1.000000,7.088994 1.000000,4.177988 1.000000,1.000000 
	C3.333536,1.000000 5.672035,1.000000 8.505266,1.000000 
z"/>
<path fill="#000000" opacity="1.000000" stroke="none" 
	d="
M1811.000000,91.000000 
	C1811.000000,79.167503 1811.146118,67.832024 1810.915039,56.504238 
	C1810.841553,52.895611 1812.123047,50.542007 1814.414917,47.833252 
	C1818.965698,42.454983 1824.090820,40.744133 1831.194702,40.813282 
	C1871.021240,41.200985 1910.853760,41.043293 1950.683716,40.922829 
	C1954.095581,40.912514 1956.321655,42.099823 1958.940308,44.192715 
	C1965.473267,49.413731 1967.297241,55.659069 1967.200928,63.966187 
	C1966.749023,102.958076 1966.966064,141.958191 1967.062744,180.955078 
	C1967.070679,184.159393 1965.895142,186.268845 1963.958374,188.765427 
	C1958.686890,195.560623 1952.269897,197.318665 1943.762207,197.212555 
	C1904.937866,196.728317 1866.103882,196.953766 1827.273804,197.080139 
	C1823.845703,197.091309 1821.643555,195.846054 1819.029785,193.778122 
	C1812.448242,188.571198 1810.641846,182.285751 1810.800903,173.989899 
	C1811.328125,146.502090 1811.000000,118.997902 1811.000000,91.000000 
z"/>
<path fill="#000000" opacity="1.000000" stroke="none" 
	d="
M2368.823975,44.671577 
	C2371.097900,41.628201 2373.739746,40.903595 2377.195557,40.914711 
	C2418.335938,41.047001 2459.476807,41.039116 2500.617432,40.927620 
	C2504.001465,40.918449 2506.262939,42.014191 2508.889648,44.143162 
	C2515.350586,49.379547 2517.308350,55.539780 2517.208496,63.881813 
	C2516.739014,103.018234 2517.054199,142.163681 2516.868408,181.304840 
	C2516.856934,183.724579 2515.273682,186.340408 2513.874756,188.512833 
	C2509.067871,195.977676 2502.033936,197.295639 2493.430664,197.196472 
	C2454.460205,196.747314 2415.481689,197.047974 2376.506836,196.877930 
	C2374.226562,196.867996 2371.730469,195.430023 2369.717529,194.084290 
	C2362.281738,189.112671 2360.655762,182.092239 2360.781494,173.241379 
	C2361.302246,136.605164 2361.212646,99.955009 2360.827393,63.315434 
	C2360.746582,55.617794 2361.995361,49.398697 2368.823975,44.671577 
z"/>
<path fill="#F2561D" opacity="1.000000" stroke="none" 
	d="
M159.000000,96.223984 
	C159.000000,109.682426 158.330704,122.717239 159.227844,135.643326 
	C159.859329,144.741806 157.153076,151.378128 149.985245,156.450348 
	C148.361069,157.599670 146.331711,158.869568 144.475723,158.889969 
	C127.493004,159.076782 110.506821,159.061966 93.523491,158.905609 
	C91.788910,158.889633 89.864090,157.849762 88.372398,156.796616 
	C80.898132,151.519577 78.073059,144.613647 78.764648,135.141937 
	C79.707985,122.222466 79.099060,109.181175 78.936653,96.194855 
	C78.890877,92.534554 79.623749,89.767609 82.319824,86.926163 
	C87.097092,81.891281 91.607483,78.237328 99.439919,78.776253 
	C111.704132,79.620110 124.096985,79.502396 136.381409,78.820442 
	C144.351395,78.378014 150.328781,80.305862 155.383453,86.629181 
	C157.689316,89.513794 159.603378,91.975876 159.000000,96.223984 
z"/>
</svg>