<svg version="1.1" id="Layer_1" xmlns="http://www.w3.org/2000/svg" xmlns:xlink="http://www.w3.org/1999/xlink" x="0px" y="0px"
	 width="100%" viewBox="0 0 5114 473" enable-background="new 0 0 5114 473" xml:space="preserve">
<path fill="#FFFFFF" opacity="1.000000" stroke="none" 
	d="
M3013.000000,473.999969 
	C2906.645752,474.000000 2800.291748,474.000000 2693.557373,473.675232 
	C2699.530518,466.987030 2705.753174,460.484833 2712.298828,454.325745 
	C2715.069336,451.718872 2716.080078,449.035828 2716.076904,445.255096 
	C2715.982178,332.993500 2716.018555,220.731842 2715.916748,108.470276 
	C2715.913330,104.830734 2716.894775,102.295273 2719.543457,99.834091 
	C2725.030029,94.736000 2730.040283,89.118980 2735.603027,84.111725 
	C2737.448730,82.450485 2740.382568,81.139992 2742.825439,81.128784 
	C2782.466064,80.946838 2822.107666,81.016563 2861.749023,80.987747 
	C2871.057129,80.980980 2881.425293,83.351044 2889.375488,80.020248 
	C2897.342041,76.682518 2902.895264,67.583748 2909.506104,61.009880 
	C2909.624023,60.892590 2909.786377,60.792049 2909.846436,60.649296 
	C2910.573242,58.926376 2911.865723,57.209450 2911.903076,55.467232 
	C2912.106445,45.977657 2912.143555,36.477520 2911.885010,26.990652 
	C2911.829834,24.960472 2910.783447,22.537998 2909.394287,21.035336 
	C2903.085938,14.212325 2896.491455,7.653736 2890.000000,0.999989 
	C2930.020752,1.000000 2970.041748,1.000000 3010.525146,1.353406 
	C3004.920410,8.047530 2998.735352,14.282268 2992.867432,20.802893 
	C2991.389160,22.445744 2990.119873,25.002857 2990.116455,27.142038 
	C2989.980225,114.790405 2989.985840,202.439026 2990.092773,290.087524 
	C2990.094971,291.973633 2991.013428,294.303314 2992.305664,295.667328 
	C2998.489746,302.196136 3004.873535,308.543365 3011.378662,314.753754 
	C3012.643311,315.961121 3014.748047,316.860443 3016.488770,316.901459 
	C3025.481934,317.113281 3034.485596,317.112335 3043.478760,316.902466 
	C3045.221680,316.861786 3047.332520,315.978973 3048.596191,314.774170 
	C3054.864502,308.797943 3060.798584,302.470703 3067.083252,296.512543 
	C3069.354736,294.359009 3070.062988,292.154205 3070.059082,289.120178 
	C3069.979980,228.799423 3070.021240,168.478470 3069.940430,108.157700 
	C3069.936035,104.959984 3070.643066,102.585274 3073.066162,100.322197 
	C3078.664551,95.094345 3084.092529,89.666039 3089.320801,84.067902 
	C3091.583252,81.645294 3093.957275,80.938126 3097.155273,80.940880 
	C3183.304199,81.015053 3269.453125,81.018753 3355.602051,80.930550 
	C3359.000244,80.927071 3361.496094,81.675247 3363.871094,84.240349 
	C3368.847656,89.616180 3374.051514,94.800224 3379.410400,99.796425 
	C3382.037842,102.245888 3383.093750,104.745987 3383.088867,108.414970 
	C3382.974121,194.563690 3382.984863,280.712616 3383.060303,366.861420 
	C3383.062988,370.065460 3382.344482,372.438538 3379.919434,374.690521 
	C3374.673340,379.562866 3369.561035,384.607513 3364.731445,389.889862 
	C3361.936768,392.946777 3359.030762,394.104797 3354.825928,394.100098 
	C3242.349121,393.974365 3129.872314,394.014404 3017.395508,393.930847 
	C3013.996826,393.928314 3011.505615,394.682159 3009.127441,397.242249 
	C3003.914795,402.854187 2998.206543,408.007965 2993.040771,413.659882 
	C2991.458008,415.392212 2990.225586,418.107025 2990.135254,420.422760 
	C2989.797607,429.074463 2989.804688,437.754547 2990.129150,446.407288 
	C2990.216553,448.737610 2991.345459,451.501038 2992.919434,453.220795 
	C2999.420166,460.323608 3006.275146,467.102234 3013.000000,473.999969 
z"/>
<path fill="#FFFFFF" opacity="1.000000" stroke="none" 
	d="
M2339.000000,1.000008 
	C2379.687500,1.000000 2420.375000,1.000000 2461.442627,1.324875 
	C2455.232422,8.253515 2448.491699,14.717915 2442.152588,21.554588 
	C2440.468506,23.370707 2439.222168,26.303427 2439.140869,28.768669 
	C2438.827637,38.253704 2436.444580,48.856209 2439.833740,56.947426 
	C2443.293213,65.205650 2452.731934,70.903656 2459.327393,77.934242 
	C2461.596436,80.353035 2463.965088,81.067612 2467.162109,81.060257 
	C2507.156250,80.968277 2547.150391,80.987907 2587.144775,81.009415 
	C2595.965820,81.014153 2605.749756,78.780312 2613.333496,81.878319 
	C2620.733887,84.901360 2625.746826,93.577370 2632.086914,99.471497 
	C2634.999756,102.179443 2636.096924,104.948112 2636.092773,108.957458 
	C2635.977295,221.274796 2636.012451,333.592285 2635.937256,445.909729 
	C2635.935059,449.130981 2636.761963,451.439789 2639.109619,453.727814 
	C2645.887695,460.333405 2652.389648,467.222321 2659.000000,474.000000 
	C2552.645752,474.000000 2446.291748,474.000000 2339.557373,473.675171 
	C2345.654053,466.870544 2352.029297,460.284088 2358.659912,453.966064 
	C2361.143799,451.599670 2362.186035,449.203735 2362.082764,445.739868 
	C2361.805908,436.418671 2364.508545,426.007721 2361.181641,418.057159 
	C2357.785645,409.940247 2348.492432,404.358490 2342.056152,397.411835 
	C2339.545898,394.702454 2336.913818,393.928864 2333.355225,393.932434 
	C2247.214600,394.019012 2161.073730,393.969971 2074.933350,394.094757 
	C2070.915527,394.100555 2068.140625,392.996368 2065.456543,390.069397 
	C2060.619385,384.794281 2055.514160,379.743561 2050.256104,374.885376 
	C2047.695312,372.519165 2046.925049,370.030121 2046.928955,366.624298 
	C2047.020874,287.814850 2046.996704,209.005234 2047.004761,130.195648 
	C2047.005737,121.367264 2044.631836,111.514771 2047.787354,103.995422 
	C2051.014160,96.306114 2059.826904,91.028740 2065.919678,84.441452 
	C2068.416260,81.742088 2071.030518,80.925117 2074.606445,80.928894 
	C2160.913818,81.020111 2247.221191,80.975906 2333.528564,81.083694 
	C2337.169189,81.088242 2339.698486,80.097084 2342.167236,77.455559 
	C2347.625000,71.616371 2353.556641,66.218170 2358.963379,60.335083 
	C2360.549072,58.609516 2361.769287,55.889214 2361.865234,53.571358 
	C2362.209473,45.254772 2362.201660,36.907249 2361.870361,28.589645 
	C2361.777344,26.258036 2360.652588,23.496975 2359.078613,21.777222 
	C2352.578613,14.675040 2345.724121,7.897073 2339.000000,1.000008 
z"/>
<path fill="#FFFFFF" opacity="1.000000" stroke="none" 
	d="
M3880.000000,1.000014 
	C4088.691650,1.000000 4297.383301,1.000000 4506.448730,1.324818 
	C4500.345215,8.129951 4493.969727,14.717315 4487.337891,21.035480 
	C4484.853027,23.402842 4483.919434,25.812790 4483.922363,29.261259 
	C4484.017578,134.071823 4484.005859,238.882477 4483.989746,343.693115 
	C4483.988281,353.009155 4486.375977,363.385101 4483.048828,371.343140 
	C4479.716309,379.313202 4470.708496,384.973633 4463.953125,391.399811 
	C4462.478516,392.802490 4460.011230,393.891937 4457.999512,393.894745 
	C4371.018066,394.016876 4284.037109,394.016693 4197.055664,393.896515 
	C4195.037598,393.893738 4192.573730,392.829224 4191.083984,391.438843 
	C4185.241211,385.986145 4179.533691,380.360046 4174.158203,374.451019 
	C4172.485352,372.612549 4171.153320,369.683807 4171.133301,367.242126 
	C4170.918457,341.249512 4171.008789,315.254486 4170.996094,289.260101 
	C4170.991211,279.764191 4173.556641,269.171265 4170.170898,261.077637 
	C4166.715820,252.819611 4157.390625,247.017227 4150.635742,240.139252 
	C4150.402344,239.901901 4150.218262,239.553757 4149.937012,239.436432 
	C4147.924805,238.598251 4145.911621,237.171967 4143.863770,237.110352 
	C4135.207031,236.849899 4126.528809,236.783615 4117.878418,237.136566 
	C4115.398438,237.237747 4112.477539,238.421616 4110.636719,240.082397 
	C4104.953125,245.209900 4099.791016,250.910416 4094.223877,256.173553 
	C4091.879395,258.390198 4090.905029,260.662109 4090.924561,263.940155 
	C4091.065674,287.600830 4091.057373,311.263092 4090.932617,334.923950 
	C4090.915527,338.152496 4091.813721,340.422546 4094.127197,342.728577 
	C4136.612793,385.076599 4179.011230,427.512024 4221.414062,469.943146 
	C4222.687500,471.217346 4223.808105,472.644379 4225.000000,474.000061 
	C4110.308594,474.000000 3995.616943,474.000000 3880.551270,473.675171 
	C3923.290039,430.233307 3966.386230,387.099609 4009.559570,344.043457 
	C4011.946289,341.663330 4013.092529,339.368256 4013.086182,335.870789 
	C4012.968994,270.231476 4012.975830,204.591843 4013.071289,138.952454 
	C4013.075928,135.683472 4012.064209,133.460541 4009.784668,131.187759 
	C3967.668213,89.193962 3925.627930,47.123737 3883.585693,5.055776 
	C3882.312500,3.781607 3881.191895,2.355345 3880.000000,1.000014 
z"/>
<path fill="#FFFFFF" opacity="1.000000" stroke="none" 
	d="
M1396.000000,1.000014 
	C1473.355957,1.000000 1550.712036,1.000000 1628.445312,1.324814 
	C1585.713257,44.763477 1542.623901,87.897484 1499.441040,130.937820 
	C1497.026489,133.344345 1495.922607,135.662094 1495.927734,139.114883 
	C1496.025635,204.749466 1496.023315,270.384277 1495.931274,336.018890 
	C1495.926636,339.274597 1496.905884,341.511505 1499.193726,343.792236 
	C1540.722168,385.190033 1582.177612,426.660950 1623.600952,468.163940 
	C1625.305420,469.871674 1626.544189,472.044067 1628.000000,474.000000 
	C1446.310669,474.000000 1264.621338,474.000000 1082.471924,473.646667 
	C1087.256958,467.779633 1092.295654,462.047333 1097.819214,456.828400 
	C1101.553711,453.300110 1103.168457,449.690613 1103.140381,444.362091 
	C1102.896606,398.213379 1103.056030,352.062622 1102.901978,305.913147 
	C1102.888550,301.886932 1104.036133,299.132202 1106.943970,296.442932 
	C1112.565796,291.243805 1117.944702,285.766937 1123.200928,280.194489 
	C1125.425903,277.835602 1127.721558,276.925659 1130.978882,276.930756 
	C1191.290283,277.025238 1251.601807,276.976990 1311.913208,277.063843 
	C1315.135010,277.068481 1317.491577,276.297394 1319.725098,273.882538 
	C1324.246460,268.994171 1328.892944,264.181274 1333.868164,259.765747 
	C1337.763794,256.308380 1339.436157,252.586243 1339.121948,247.273880 
	C1338.592407,238.320709 1341.226807,228.340652 1338.064819,220.621964 
	C1334.974854,213.079468 1326.170044,207.946411 1320.138428,201.507736 
	C1317.651978,198.853394 1315.100098,197.913254 1311.482544,197.920013 
	C1251.337769,198.032272 1191.192749,197.975891 1131.047974,198.066437 
	C1127.811523,198.071304 1125.495117,197.229797 1123.247925,194.856003 
	C1117.524048,188.809402 1111.388916,183.149872 1105.724976,177.050537 
	C1104.241577,175.453049 1103.158936,172.829056 1103.118164,170.653519 
	C1102.877930,157.829315 1102.986084,144.998322 1103.004761,132.169632 
	C1103.018066,123.008621 1100.540161,112.782639 1103.817505,104.983002 
	C1107.166870,97.011566 1116.304443,91.535255 1122.656860,84.731956 
	C1125.241455,81.963837 1127.913574,80.914192 1131.713867,80.918846 
	C1217.849243,81.024391 1303.984863,80.985909 1390.120361,81.058266 
	C1393.153320,81.060814 1395.359497,80.357231 1397.511963,78.084152 
	C1403.350952,71.917610 1409.593140,66.132256 1415.408691,59.944962 
	C1416.804810,58.459465 1417.826050,56.018703 1417.885864,53.983929 
	C1418.149902,44.994938 1418.150513,35.989338 1417.885254,27.000412 
	C1417.825317,24.967192 1416.788818,22.543301 1415.399780,21.040733 
	C1409.089966,14.215505 1402.493286,7.655496 1396.000000,1.000014 
z"/>
<path fill="#FFFFFF" opacity="1.000000" stroke="none" 
	d="
M2101.000000,474.000000 
	C2023.312378,474.000000 1945.624878,474.000000 1867.557129,473.675110 
	C1873.533325,466.984222 1879.756348,460.476532 1886.308472,454.319153 
	C1889.088013,451.707123 1890.195801,449.025940 1890.079834,445.236420 
	C1889.799316,436.081146 1892.463989,425.852295 1889.193115,418.045593 
	C1885.852295,410.071960 1876.690308,404.616425 1870.397339,397.764038 
	C1867.654175,394.776764 1864.777588,393.914429 1860.844116,393.919250 
	C1774.526978,394.025024 1688.209839,393.986267 1601.892578,394.056915 
	C1598.865356,394.059387 1596.646484,393.378967 1594.495605,391.092560 
	C1589.018677,385.270477 1583.119141,379.845245 1577.658325,374.008942 
	C1576.258667,372.512817 1575.129395,370.086945 1575.112427,368.077759 
	C1574.931396,346.749939 1574.933960,325.419464 1575.106689,304.091522 
	C1575.123047,302.064209 1576.145142,299.590027 1577.536133,298.108063 
	C1583.348511,291.915985 1589.329102,285.858765 1595.588379,280.123749 
	C1597.415405,278.449707 1600.367798,277.135986 1602.809082,277.128174 
	C1655.465454,276.959595 1708.122437,277.004974 1760.779297,276.995270 
	C1769.942017,276.993591 1780.205933,279.504852 1787.964600,276.186737 
	C1796.080200,272.715973 1801.894287,263.716492 1808.462280,256.891174 
	C1809.864868,255.433533 1810.829468,252.950531 1810.888306,250.908051 
	C1811.146973,241.917175 1811.153442,232.910019 1810.882446,223.919846 
	C1810.821411,221.894241 1809.738281,219.483932 1808.338135,217.987549 
	C1802.876953,212.151520 1796.976807,206.726959 1791.501099,200.903763 
	C1789.348877,198.614929 1787.127197,197.939255 1784.102295,197.943069 
	C1723.780273,198.019333 1663.458252,197.978165 1603.136230,198.060852 
	C1599.931152,198.065247 1597.573730,197.324127 1595.307373,194.918549 
	C1589.597534,188.857544 1583.453979,183.203476 1577.784180,177.107330 
	C1576.294678,175.505890 1575.159180,172.901062 1575.120728,170.734650 
	C1574.881348,157.241409 1574.987793,143.741806 1575.004272,130.244339 
	C1575.015137,121.414742 1572.629028,111.564041 1575.779785,104.039696 
	C1579.000488,96.348915 1587.801025,91.060600 1593.892334,84.474121 
	C1596.379028,81.785103 1598.970337,80.921410 1602.565308,80.925400 
	C1688.882446,81.021210 1775.199585,80.976212 1861.516724,81.082756 
	C1865.152832,81.087242 1867.689331,80.109840 1870.160889,77.463905 
	C1875.617065,71.622345 1881.550659,66.224419 1886.958130,60.340878 
	C1888.544556,58.614796 1889.768799,55.895824 1889.864868,53.578278 
	C1890.209473,45.260780 1890.201782,36.912289 1889.870605,28.593674 
	C1889.777588,26.261501 1888.654785,23.499260 1887.080933,21.779396 
	C1880.580200,14.676354 1873.724976,7.897791 1867.000000,0.999998 
	C1944.687500,1.000000 2022.375000,1.000000 2100.442627,1.324905 
	C2057.709961,44.766693 2014.617432,87.903816 1971.431152,130.946976 
	C1969.014648,133.355621 1967.922119,135.677048 1967.927246,139.129074 
	C1968.025757,204.768478 1968.023926,270.408112 1967.928589,336.047546 
	C1967.923828,339.316559 1968.935547,341.539490 1971.215088,343.812347 
	C2013.331665,385.806000 2055.372070,427.875946 2097.414307,469.944061 
	C2098.687500,471.218109 2099.808105,472.644592 2101.000000,474.000000 
z"/>
<path fill="#FFFFFF" opacity="1.000000" stroke="none" 
	d="
M1046.000000,474.000000 
	C1005.645752,474.000000 965.291565,474.000000 924.557251,473.675110 
	C929.239014,468.279602 934.031494,462.896912 939.440979,458.229309 
	C944.489014,453.873718 946.700684,449.109894 946.149353,442.304962 
	C945.452332,433.703400 948.150757,424.069824 945.107849,416.630707 
	C942.138123,409.370514 933.621460,404.462219 927.858337,398.227142 
	C924.920105,395.048279 921.829407,393.900482 917.496521,393.906738 
	C830.997925,394.031677 744.499084,393.982178 658.000366,394.069092 
	C654.743958,394.072357 652.445557,393.182892 650.213318,390.819122 
	C644.837952,385.127167 639.049377,379.822205 633.744446,374.068939 
	C632.262634,372.461914 631.159241,369.850739 631.119019,367.677338 
	C630.878662,354.681976 630.986145,341.679871 631.004700,328.680084 
	C631.018005,319.349243 628.494629,308.935577 631.829956,300.988953 
	C635.237366,292.870575 644.509155,287.263611 651.013550,280.368408 
	C653.360535,277.880371 655.763062,276.910858 659.226318,276.918579 
	C711.725342,277.035797 764.224609,277.012695 816.723877,276.988159 
	C826.038574,276.983826 836.413757,279.357147 844.369751,276.025238 
	C852.341492,272.686707 857.898315,263.581421 864.513184,257.003418 
	C864.631165,256.886139 864.792847,256.784698 864.852905,256.641785 
	C865.577454,254.916809 866.863953,253.198441 866.903259,251.453537 
	C867.109863,242.291656 867.149658,233.118301 866.883850,223.959503 
	C866.825012,221.930328 865.763306,219.509094 864.365662,218.014282 
	C858.906006,212.175247 853.285645,206.459900 847.370544,201.088913 
	C845.536316,199.423325 842.580994,198.132690 840.135010,198.126160 
	C779.803040,197.965042 719.470398,197.978180 659.138000,198.060791 
	C655.932800,198.065186 653.574402,197.325256 651.307495,194.918869 
	C645.596680,188.856735 639.451782,183.201965 633.781250,177.104507 
	C632.291931,175.503036 631.158936,172.896545 631.120544,170.729309 
	C630.881409,157.233734 630.987427,143.731812 631.004395,130.232010 
	C631.015503,121.400955 628.629578,111.547523 631.782715,104.023361 
	C635.006226,96.331436 643.815002,91.047630 649.905518,84.457069 
	C652.399048,81.758835 655.003784,80.923714 658.588501,80.927567 
	C745.087219,81.020500 831.585938,80.986931 918.084656,81.054550 
	C921.101379,81.056908 923.327637,80.399185 925.490540,78.108727 
	C931.322937,71.932457 937.572510,66.149635 943.391357,59.961380 
	C944.789673,58.474396 945.824951,56.038589 945.885071,54.005383 
	C946.150818,45.013371 946.150085,36.004620 945.885559,27.012552 
	C945.825684,24.977598 944.795410,22.550056 943.406616,21.047592 
	C937.095093,14.219600 930.495789,7.657653 924.000000,1.000004 
	C1001.354248,1.000000 1078.708496,1.000000 1156.442871,1.324854 
	C1113.595337,44.887905 1070.347900,88.106133 1027.217041,131.440582 
	C1025.568481,133.097015 1024.134399,135.873871 1024.131104,138.130859 
	C1023.980103,241.421951 1023.985718,344.713318 1024.105103,448.004486 
	C1024.107422,450.015411 1025.212158,452.457550 1026.601196,453.960083 
	C1032.910767,460.784973 1039.506958,467.344788 1046.000000,474.000000 
z"/>
<path fill="#1779C5" opacity="1.000000" stroke="none" 
	d="
M0.999996,294.000000 
	C1.000000,204.312439 1.000000,114.624878 1.324900,24.380051 
	C9.099867,16.215191 16.549934,8.607595 24.000000,1.000000 
	C129.020889,1.000000 234.041794,1.000000 339.619934,1.324902 
	C347.601746,8.751884 355.155914,15.724008 362.428955,22.977989 
	C398.627655,59.081867 434.727783,95.284599 470.960052,131.354645 
	C473.305878,133.689926 474.061157,136.007401 474.057434,139.191284 
	C473.981018,204.472839 473.976288,269.754517 474.070129,335.036011 
	C474.074829,338.297699 473.078125,340.526276 470.795685,342.802063 
	C428.341095,385.132324 385.963684,427.540039 343.584229,469.945648 
	C342.311462,471.219147 341.191315,472.645111 340.000000,474.000000 
	C234.645767,474.000000 129.291550,474.000000 23.462711,473.646606 
	C15.658744,465.862152 8.329380,458.431061 1.000008,451.000000 
	C1.000000,439.645782 1.000000,428.291534 1.353354,416.462708 
	C8.160386,409.796234 14.730547,403.719299 21.008408,397.354034 
	C23.403650,394.925507 25.769653,393.917267 29.229958,393.920502 
	C134.046890,394.018066 238.863922,394.005829 343.680939,393.989960 
	C352.998505,393.988556 363.376190,396.382568 371.335663,393.056030 
	C379.306244,389.724884 384.861633,380.614716 391.475494,374.037445 
	C391.593414,373.920166 391.758636,373.822205 391.819489,373.680023 
	C392.555298,371.959686 393.907227,370.233429 393.909271,368.507324 
	C394.012329,281.187714 394.012177,193.867935 393.910828,106.548317 
	C393.908813,104.817665 392.991638,102.695442 391.792206,101.426094 
	C386.301666,95.615616 380.439789,90.155624 374.960663,84.334976 
	C372.604523,81.831932 370.179565,80.917747 366.732941,80.922173 
	C288.078644,81.023232 209.424179,80.996864 130.769760,81.004295 
	C121.773170,81.005142 111.737442,78.581123 104.069199,81.789017 
	C96.236549,85.065681 90.819221,93.994949 84.152855,100.245209 
	C81.768295,102.480927 80.928192,104.801971 80.933090,108.041779 
	C81.024254,168.365601 80.974991,228.689621 81.068695,289.013428 
	C81.073746,292.268372 80.166443,294.563538 77.810104,296.795227 
	C71.884277,302.407532 66.341309,308.428070 60.342575,313.956970 
	C58.619328,315.545258 55.897747,316.768707 53.580235,316.864777 
	C45.262489,317.209564 36.913738,317.201630 28.594875,316.870544 
	C26.262520,316.777710 23.499836,315.655487 21.780029,314.081573 
	C14.676682,307.580780 7.897987,300.725220 0.999996,294.000000 
z"/>
<path fill="#1779C5" opacity="1.000000" stroke="none" 
	d="
M3013.468750,473.999969 
	C3006.275146,467.102234 2999.420166,460.323608 2992.919434,453.220795 
	C2991.345459,451.501038 2990.216553,448.737610 2990.129150,446.407288 
	C2989.804688,437.754547 2989.797607,429.074463 2990.135254,420.422760 
	C2990.225586,418.107025 2991.458008,415.392212 2993.040771,413.659882 
	C2998.206543,408.007965 3003.914795,402.854187 3009.127441,397.242249 
	C3011.505615,394.682159 3013.996826,393.928314 3017.395508,393.930847 
	C3129.872314,394.014404 3242.349121,393.974365 3354.825928,394.100098 
	C3359.030762,394.104797 3361.936768,392.946777 3364.731445,389.889862 
	C3369.561035,384.607513 3374.673340,379.562866 3379.919434,374.690521 
	C3382.344482,372.438538 3383.062988,370.065460 3383.060303,366.861420 
	C3382.984863,280.712616 3382.974121,194.563690 3383.088867,108.414970 
	C3383.093750,104.745987 3382.037842,102.245888 3379.410400,99.796425 
	C3374.051514,94.800224 3368.847656,89.616180 3363.871094,84.240349 
	C3361.496094,81.675247 3359.000244,80.927071 3355.602051,80.930550 
	C3269.453125,81.018753 3183.304199,81.015053 3097.155273,80.940880 
	C3093.957275,80.938126 3091.583252,81.645294 3089.320801,84.067902 
	C3084.092529,89.666039 3078.664551,95.094345 3073.066162,100.322197 
	C3070.643066,102.585274 3069.936035,104.959984 3069.940430,108.157700 
	C3070.021240,168.478470 3069.979980,228.799423 3070.059082,289.120178 
	C3070.062988,292.154205 3069.354736,294.359009 3067.083252,296.512543 
	C3060.798584,302.470703 3054.864502,308.797943 3048.596191,314.774170 
	C3047.332520,315.978973 3045.221680,316.861786 3043.478760,316.902466 
	C3034.485596,317.112335 3025.481934,317.113281 3016.488770,316.901459 
	C3014.748047,316.860443 3012.643311,315.961121 3011.378662,314.753754 
	C3004.873535,308.543365 2998.489746,302.196136 2992.305664,295.667328 
	C2991.013428,294.303314 2990.094971,291.973633 2990.092773,290.087524 
	C2989.985840,202.439026 2989.980225,114.790405 2990.116455,27.142038 
	C2990.119873,25.002857 2991.389160,22.445744 2992.867432,20.802893 
	C2998.735352,14.282268 3004.920410,8.047530 3010.993896,1.353406 
	C3116.687500,1.000000 3222.375000,1.000000 3328.619873,1.324874 
	C3372.631104,45.107056 3416.067627,88.581497 3459.583496,131.976501 
	C3461.977051,134.363464 3463.090576,136.672302 3463.084473,140.157516 
	C3462.969238,205.111374 3462.977051,270.065552 3463.069336,335.019501 
	C3463.073975,338.274292 3462.094482,340.510498 3459.807129,342.791199 
	C3417.347900,385.124023 3374.967529,427.535950 3332.584473,469.945099 
	C3331.311523,471.218750 3330.191406,472.644958 3329.000000,474.000000 
	C3223.979248,474.000000 3118.958252,474.000000 3013.468750,473.999969 
z"/>
<path fill="#1779C5" opacity="1.000000" stroke="none" 
	d="
M4981.000000,474.000000 
	C4912.645996,474.000000 4844.291504,474.000000 4775.379883,473.675140 
	C4731.709961,430.233398 4688.613770,387.099945 4645.440430,344.043762 
	C4643.053223,341.663330 4641.907715,339.368042 4641.914062,335.870789 
	C4642.030762,270.231445 4642.023926,204.591812 4641.928711,138.952408 
	C4641.923828,135.683823 4642.935547,133.460602 4645.214844,131.187424 
	C4687.331543,89.193886 4729.372070,47.124065 4771.414551,5.056325 
	C4772.687988,3.782277 4773.808594,2.355567 4775.000000,1.000065 
	C4843.354004,1.000000 4911.708496,1.000000 4980.620117,1.324935 
	C5024.897949,45.385101 5068.617188,89.121826 5112.350098,132.844681 
	C5113.150879,133.645401 5114.113281,134.285065 5115.000000,134.999954 
	C5115.000000,203.020889 5115.000000,271.041779 5114.674805,339.619995 
	C5070.614746,383.897980 5026.878418,427.617157 4983.155273,471.349976 
	C4982.354492,472.151001 4981.714844,473.113098 4981.000000,474.000000 
M4737.002930,386.503448 
	C4740.661621,388.996826 4742.185059,394.086517 4747.967773,394.078918 
	C4834.628906,393.964905 4921.289551,394.016785 5007.950684,393.896210 
	C5009.968262,393.893402 5012.437500,392.828339 5013.921387,391.433990 
	C5020.231445,385.502167 5026.379395,379.381012 5032.282227,373.045074 
	C5033.767090,371.451233 5034.886719,368.807770 5034.889648,366.644958 
	C5035.019043,280.150909 5035.016602,193.656647 5034.899902,107.162575 
	C5034.896973,105.132469 5033.899414,102.639084 5032.515137,101.156464 
	C5026.832520,95.071030 5020.933105,89.172676 5014.847656,83.489868 
	C5013.364258,82.105026 5010.873047,81.103142 5008.843750,81.100410 
	C4922.016113,80.983688 4835.188965,80.981041 4748.361328,81.109711 
	C4746.198242,81.112923 4743.567383,82.237579 4741.959473,83.715050 
	C4736.319824,88.896416 4731.158691,94.596046 4725.557617,99.822220 
	C4722.917969,102.285004 4721.909668,104.807877 4721.915039,108.457413 
	C4722.026367,189.285202 4721.996582,270.113159 4722.005371,350.941101 
	C4722.006348,357.771179 4720.233398,365.367279 4722.650879,371.215759 
	C4725.064941,377.055328 4731.711426,381.144958 4737.002930,386.503448 
z"/>
<path fill="#1779C5" opacity="1.000000" stroke="none" 
	d="
M3879.531250,1.000014 
	C3881.191895,2.355345 3882.312500,3.781607 3883.585693,5.055776 
	C3925.627930,47.123737 3967.668213,89.193962 4009.784668,131.187759 
	C4012.064209,133.460541 4013.075928,135.683472 4013.071289,138.952454 
	C4012.975830,204.591843 4012.968994,270.231476 4013.086182,335.870789 
	C4013.092529,339.368256 4011.946289,341.663330 4009.559570,344.043457 
	C3966.386230,387.099609 3923.290039,430.233307 3880.088623,473.675171 
	C3811.645752,474.000000 3743.291748,474.000000 3674.380127,473.675201 
	C3630.709961,430.233429 3587.613525,387.099945 3544.440430,344.043518 
	C3542.053711,341.663391 3540.907471,339.368256 3540.913818,335.870789 
	C3541.031006,270.231476 3541.024170,204.591843 3540.928711,138.952454 
	C3540.924072,135.683472 3541.935791,133.460556 3544.215332,131.187561 
	C3586.331787,89.193924 3628.372070,47.123665 3670.414307,5.055777 
	C3671.687500,3.781782 3672.808105,2.355353 3674.000000,1.000017 
	C3742.354248,1.000000 3810.708252,1.000000 3879.531250,1.000014 
M3791.500000,394.000000 
	C3829.662354,394.000000 3867.824951,393.976562 3905.987305,394.045685 
	C3908.958008,394.051056 3911.236816,393.519165 3913.427002,391.183044 
	C3919.235840,384.986908 3925.519043,379.234802 3931.306641,373.019958 
	C3932.789307,371.428040 3933.887939,368.776459 3933.891113,366.609863 
	C3934.018799,280.452606 3934.016357,194.295120 3933.898926,108.137825 
	C3933.896240,106.110489 3932.885986,103.618378 3931.497314,102.139893 
	C3925.454834,95.706329 3919.188965,89.471695 3912.781738,83.399719 
	C3911.408203,82.098099 3909.109131,81.099403 3907.234619,81.097000 
	C3820.410889,80.985481 3733.586670,80.985481 3646.762939,81.097015 
	C3644.888672,81.099426 3642.589844,82.099754 3641.216553,83.401680 
	C3634.931641,89.360680 3628.758789,95.457108 3622.885010,101.817818 
	C3621.309082,103.524666 3620.120605,106.334641 3620.116943,108.640404 
	C3619.978516,194.464325 3620.014160,280.288513 3619.942627,366.112579 
	C3619.940186,369.142944 3620.630127,371.357452 3622.911865,373.508331 
	C3628.850342,379.106598 3634.615723,384.900574 3640.224365,390.830261 
	C3642.462158,393.196167 3644.764893,394.076233 3648.015625,394.069305 
	C3695.510254,393.968414 3743.005127,394.000000 3791.500000,394.000000 
z"/>
<path fill="#1779C5" opacity="1.000000" stroke="none" 
	d="
M923.531372,1.000004 
	C930.495789,7.657653 937.095093,14.219600 943.406616,21.047592 
	C944.795410,22.550056 945.825684,24.977598 945.885559,27.012552 
	C946.150085,36.004620 946.150818,45.013371 945.885071,54.005383 
	C945.824951,56.038589 944.789673,58.474396 943.391357,59.961380 
	C937.572510,66.149635 931.322937,71.932457 925.490540,78.108727 
	C923.327637,80.399185 921.101379,81.056908 918.084656,81.054550 
	C831.585938,80.986931 745.087219,81.020500 658.588501,80.927567 
	C655.003784,80.923714 652.399048,81.758835 649.905518,84.457069 
	C643.815002,91.047630 635.006226,96.331436 631.782715,104.023361 
	C628.629578,111.547523 631.015503,121.400955 631.004395,130.232010 
	C630.987427,143.731812 630.881409,157.233734 631.120544,170.729309 
	C631.158936,172.896545 632.291931,175.503036 633.781250,177.104507 
	C639.451782,183.201965 645.596680,188.856735 651.307495,194.918869 
	C653.574402,197.325256 655.932800,198.065186 659.138000,198.060791 
	C719.470398,197.978180 779.803040,197.965042 840.135010,198.126160 
	C842.580994,198.132690 845.536316,199.423325 847.370544,201.088913 
	C853.285645,206.459900 858.906006,212.175247 864.365662,218.014282 
	C865.763306,219.509094 866.825012,221.930328 866.883850,223.959503 
	C867.149658,233.118301 867.109863,242.291656 866.903259,251.453537 
	C866.863953,253.198441 865.577454,254.916809 864.852905,256.641785 
	C864.792847,256.784698 864.631165,256.886139 864.513184,257.003418 
	C857.898315,263.581421 852.341492,272.686707 844.369751,276.025238 
	C836.413757,279.357147 826.038574,276.983826 816.723877,276.988159 
	C764.224609,277.012695 711.725342,277.035797 659.226318,276.918579 
	C655.763062,276.910858 653.360535,277.880371 651.013550,280.368408 
	C644.509155,287.263611 635.237366,292.870575 631.829956,300.988953 
	C628.494629,308.935577 631.018005,319.349243 631.004700,328.680084 
	C630.986145,341.679871 630.878662,354.681976 631.119019,367.677338 
	C631.159241,369.850739 632.262634,372.461914 633.744446,374.068939 
	C639.049377,379.822205 644.837952,385.127167 650.213318,390.819122 
	C652.445557,393.182892 654.743958,394.072357 658.000366,394.069092 
	C744.499084,393.982178 830.997925,394.031677 917.496521,393.906738 
	C921.829407,393.900482 924.920105,395.048279 927.858337,398.227142 
	C933.621460,404.462219 942.138123,409.370514 945.107849,416.630707 
	C948.150757,424.069824 945.452332,433.703400 946.149353,442.304962 
	C946.700684,449.109894 944.489014,453.873718 939.440979,458.229309 
	C934.031494,462.896912 929.239014,468.279602 924.088623,473.675110 
	C844.645752,474.000000 765.291565,474.000000 685.380005,473.675110 
	C642.985962,431.170959 601.149475,388.991486 559.311340,346.813568 
	C558.021301,345.513000 556.822510,344.092407 555.393738,342.965393 
	C552.691711,340.834015 551.913147,338.242462 551.919006,334.780365 
	C552.029053,269.656006 552.034180,204.531357 551.910034,139.407059 
	C551.903015,135.736649 553.063721,133.319824 555.593323,130.798828 
	C597.592407,88.942871 639.500732,46.995773 681.415222,5.054939 
	C682.688171,3.781214 683.808533,2.355086 685.000000,1.000008 
	C764.354248,1.000000 843.708435,1.000000 923.531372,1.000004 
z"/>
<path fill="#1779C5" opacity="1.000000" stroke="none" 
	d="
M1866.531372,0.999998 
	C1873.724976,7.897791 1880.580200,14.676354 1887.080933,21.779396 
	C1888.654785,23.499260 1889.777588,26.261501 1889.870605,28.593674 
	C1890.201782,36.912289 1890.209473,45.260780 1889.864868,53.578278 
	C1889.768799,55.895824 1888.544556,58.614796 1886.958130,60.340878 
	C1881.550659,66.224419 1875.617065,71.622345 1870.160889,77.463905 
	C1867.689331,80.109840 1865.152832,81.087242 1861.516724,81.082756 
	C1775.199585,80.976212 1688.882446,81.021210 1602.565308,80.925400 
	C1598.970337,80.921410 1596.379028,81.785103 1593.892334,84.474121 
	C1587.801025,91.060600 1579.000488,96.348915 1575.779785,104.039696 
	C1572.629028,111.564041 1575.015137,121.414742 1575.004272,130.244339 
	C1574.987793,143.741806 1574.881348,157.241409 1575.120728,170.734650 
	C1575.159180,172.901062 1576.294678,175.505890 1577.784180,177.107330 
	C1583.453979,183.203476 1589.597534,188.857544 1595.307373,194.918549 
	C1597.573730,197.324127 1599.931152,198.065247 1603.136230,198.060852 
	C1663.458252,197.978165 1723.780273,198.019333 1784.102295,197.943069 
	C1787.127197,197.939255 1789.348877,198.614929 1791.501099,200.903763 
	C1796.976807,206.726959 1802.876953,212.151520 1808.338135,217.987549 
	C1809.738281,219.483932 1810.821411,221.894241 1810.882446,223.919846 
	C1811.153442,232.910019 1811.146973,241.917175 1810.888306,250.908051 
	C1810.829468,252.950531 1809.864868,255.433533 1808.462280,256.891174 
	C1801.894287,263.716492 1796.080200,272.715973 1787.964600,276.186737 
	C1780.205933,279.504852 1769.942017,276.993591 1760.779297,276.995270 
	C1708.122437,277.004974 1655.465454,276.959595 1602.809082,277.128174 
	C1600.367798,277.135986 1597.415405,278.449707 1595.588379,280.123749 
	C1589.329102,285.858765 1583.348511,291.915985 1577.536133,298.108063 
	C1576.145142,299.590027 1575.123047,302.064209 1575.106689,304.091522 
	C1574.933960,325.419464 1574.931396,346.749939 1575.112427,368.077759 
	C1575.129395,370.086945 1576.258667,372.512817 1577.658325,374.008942 
	C1583.119141,379.845245 1589.018677,385.270477 1594.495605,391.092560 
	C1596.646484,393.378967 1598.865356,394.059387 1601.892578,394.056915 
	C1688.209839,393.986267 1774.526978,394.025024 1860.844116,393.919250 
	C1864.777588,393.914429 1867.654175,394.776764 1870.397339,397.764038 
	C1876.690308,404.616425 1885.852295,410.071960 1889.193115,418.045593 
	C1892.463989,425.852295 1889.799316,436.081146 1890.079834,445.236420 
	C1890.195801,449.025940 1889.088013,451.707123 1886.308472,454.319153 
	C1879.756348,460.476532 1873.533325,466.984222 1867.088623,473.675110 
	C1787.645752,474.000000 1708.291504,474.000000 1628.468628,474.000000 
	C1626.544189,472.044067 1625.305420,469.871674 1623.600952,468.163940 
	C1582.177612,426.660950 1540.722168,385.190033 1499.193726,343.792236 
	C1496.905884,341.511505 1495.926636,339.274597 1495.931274,336.018890 
	C1496.023315,270.384277 1496.025635,204.749466 1495.927734,139.114883 
	C1495.922607,135.662094 1497.026489,133.344345 1499.441040,130.937820 
	C1542.623901,87.897484 1585.713257,44.763477 1628.911377,1.324814 
	C1708.020874,1.000000 1787.041870,1.000000 1866.531372,0.999998 
z"/>
<path fill="#FFFFFF" opacity="1.000000" stroke="none" 
	d="
M0.999996,294.468658 
	C7.897987,300.725220 14.676682,307.580780 21.780029,314.081573 
	C23.499836,315.655487 26.262520,316.777710 28.594875,316.870544 
	C36.913738,317.201630 45.262489,317.209564 53.580235,316.864777 
	C55.897747,316.768707 58.619328,315.545258 60.342575,313.956970 
	C66.341309,308.428070 71.884277,302.407532 77.810104,296.795227 
	C80.166443,294.563538 81.073746,292.268372 81.068695,289.013428 
	C80.974991,228.689621 81.024254,168.365601 80.933090,108.041779 
	C80.928192,104.801971 81.768295,102.480927 84.152855,100.245209 
	C90.819221,93.994949 96.236549,85.065681 104.069199,81.789017 
	C111.737442,78.581123 121.773170,81.005142 130.769760,81.004295 
	C209.424179,80.996864 288.078644,81.023232 366.732941,80.922173 
	C370.179565,80.917747 372.604523,81.831932 374.960663,84.334976 
	C380.439789,90.155624 386.301666,95.615616 391.792206,101.426094 
	C392.991638,102.695442 393.908813,104.817665 393.910828,106.548317 
	C394.012177,193.867935 394.012329,281.187714 393.909271,368.507324 
	C393.907227,370.233429 392.555298,371.959686 391.819489,373.680023 
	C391.758636,373.822205 391.593414,373.920166 391.475494,374.037445 
	C384.861633,380.614716 379.306244,389.724884 371.335663,393.056030 
	C363.376190,396.382568 352.998505,393.988556 343.680939,393.989960 
	C238.863922,394.005829 134.046890,394.018066 29.229958,393.920502 
	C25.769653,393.917267 23.403650,394.925507 21.008408,397.354034 
	C14.730547,403.719299 8.160386,409.796234 1.353354,415.994019 
	C1.000000,375.645782 1.000000,335.291534 0.999996,294.468658 
M317.000000,188.640686 
	C317.806366,183.639328 316.079315,179.932541 312.191895,176.514221 
	C306.451385,171.466431 301.387909,165.655991 295.802948,160.419022 
	C294.419220,159.121506 292.141022,158.107040 290.269592,158.099808 
	C255.127228,157.964157 219.984055,157.965103 184.841660,158.096649 
	C182.960892,158.103668 180.652420,159.052933 179.281784,160.346375 
	C173.108231,166.172226 167.097031,172.182465 161.279358,178.363464 
	C159.993591,179.729553 159.100388,182.058075 159.093643,183.947250 
	C158.966476,219.589355 158.960464,255.232193 159.103302,290.874176 
	C159.111420,292.900726 160.120636,295.381439 161.505844,296.864197 
	C167.186371,302.944641 173.079895,308.841553 179.161362,314.520874 
	C180.642075,315.903687 183.132172,316.889435 185.162872,316.897766 
	C219.972076,317.040039 254.782333,317.055389 289.591156,316.873413 
	C291.874451,316.861481 294.619385,315.544708 296.341156,313.957794 
	C302.336731,308.431793 307.879303,302.417206 313.799500,296.805054 
	C316.147614,294.579132 317.083496,292.297394 317.071899,289.035919 
	C316.954193,255.892090 317.000000,222.747665 317.000000,188.640686 
z"/>
<path fill="#FFFFFF" opacity="1.000000" stroke="none" 
	d="
M3673.531250,1.000017 
	C3672.808105,2.355353 3671.687500,3.781782 3670.414307,5.055777 
	C3628.372070,47.123665 3586.331787,89.193924 3544.215332,131.187561 
	C3541.935791,133.460556 3540.924072,135.683472 3540.928711,138.952454 
	C3541.024170,204.591843 3541.031006,270.231476 3540.913818,335.870789 
	C3540.907471,339.368256 3542.053711,341.663391 3544.440430,344.043518 
	C3587.613525,387.099945 3630.709961,430.233429 3673.911377,473.675201 
	C3559.312500,474.000000 3444.625000,474.000000 3329.468750,474.000000 
	C3330.191406,472.644958 3331.311523,471.218750 3332.584473,469.945099 
	C3374.967529,427.535950 3417.347900,385.124023 3459.807129,342.791199 
	C3462.094482,340.510498 3463.073975,338.274292 3463.069336,335.019501 
	C3462.977051,270.065552 3462.969238,205.111374 3463.084473,140.157516 
	C3463.090576,136.672302 3461.977051,134.363464 3459.583496,131.976501 
	C3416.067627,88.581497 3372.631104,45.107056 3329.088623,1.324874 
	C3443.687500,1.000000 3558.375000,1.000000 3673.531250,1.000017 
z"/>
<path fill="#FFFFFF" opacity="1.000000" stroke="none" 
	d="
M684.531372,1.000008 
	C683.808533,2.355086 682.688171,3.781214 681.415222,5.054939 
	C639.500732,46.995773 597.592407,88.942871 555.593323,130.798828 
	C553.063721,133.319824 551.903015,135.736649 551.910034,139.407059 
	C552.034180,204.531357 552.029053,269.656006 551.919006,334.780365 
	C551.913147,338.242462 552.691711,340.834015 555.393738,342.965393 
	C556.822510,344.092407 558.021301,345.513000 559.311340,346.813568 
	C601.149475,388.991486 642.985962,431.170959 684.911377,473.675110 
	C570.312439,474.000000 455.624878,474.000000 340.468658,474.000000 
	C341.191315,472.645111 342.311462,471.219147 343.584229,469.945648 
	C385.963684,427.540039 428.341095,385.132324 470.795685,342.802063 
	C473.078125,340.526276 474.074829,338.297699 474.070129,335.036011 
	C473.976288,269.754517 473.981018,204.472839 474.057434,139.191284 
	C474.061157,136.007401 473.305878,133.689926 470.960052,131.354645 
	C434.727783,95.284599 398.627655,59.081867 362.428955,22.977989 
	C355.155914,15.724008 347.601746,8.751884 340.088623,1.324902 
	C454.687561,1.000000 569.375122,1.000000 684.531372,1.000008 
z"/>
<path fill="#1779C5" opacity="1.000000" stroke="none" 
	d="
M1046.468628,474.000000 
	C1039.506958,467.344788 1032.910767,460.784973 1026.601196,453.960083 
	C1025.212158,452.457550 1024.107422,450.015411 1024.105103,448.004486 
	C1023.985718,344.713318 1023.980103,241.421951 1024.131104,138.130859 
	C1024.134399,135.873871 1025.568481,133.097015 1027.217041,131.440582 
	C1070.347900,88.106133 1113.595337,44.887905 1156.911377,1.324854 
	C1236.354248,1.000000 1315.708496,1.000000 1395.531372,1.000014 
	C1402.493286,7.655496 1409.089966,14.215505 1415.399780,21.040733 
	C1416.788818,22.543301 1417.825317,24.967192 1417.885254,27.000412 
	C1418.150513,35.989338 1418.149902,44.994938 1417.885864,53.983929 
	C1417.826050,56.018703 1416.804810,58.459465 1415.408691,59.944962 
	C1409.593140,66.132256 1403.350952,71.917610 1397.511963,78.084152 
	C1395.359497,80.357231 1393.153320,81.060814 1390.120361,81.058266 
	C1303.984863,80.985909 1217.849243,81.024391 1131.713867,80.918846 
	C1127.913574,80.914192 1125.241455,81.963837 1122.656860,84.731956 
	C1116.304443,91.535255 1107.166870,97.011566 1103.817505,104.983002 
	C1100.540161,112.782639 1103.018066,123.008621 1103.004761,132.169632 
	C1102.986084,144.998322 1102.877930,157.829315 1103.118164,170.653519 
	C1103.158936,172.829056 1104.241577,175.453049 1105.724976,177.050537 
	C1111.388916,183.149872 1117.524048,188.809402 1123.247925,194.856003 
	C1125.495117,197.229797 1127.811523,198.071304 1131.047974,198.066437 
	C1191.192749,197.975891 1251.337769,198.032272 1311.482544,197.920013 
	C1315.100098,197.913254 1317.651978,198.853394 1320.138428,201.507736 
	C1326.170044,207.946411 1334.974854,213.079468 1338.064819,220.621964 
	C1341.226807,228.340652 1338.592407,238.320709 1339.121948,247.273880 
	C1339.436157,252.586243 1337.763794,256.308380 1333.868164,259.765747 
	C1328.892944,264.181274 1324.246460,268.994171 1319.725098,273.882538 
	C1317.491577,276.297394 1315.135010,277.068481 1311.913208,277.063843 
	C1251.601807,276.976990 1191.290283,277.025238 1130.978882,276.930756 
	C1127.721558,276.925659 1125.425903,277.835602 1123.200928,280.194489 
	C1117.944702,285.766937 1112.565796,291.243805 1106.943970,296.442932 
	C1104.036133,299.132202 1102.888550,301.886932 1102.901978,305.913147 
	C1103.056030,352.062622 1102.896606,398.213379 1103.140381,444.362091 
	C1103.168457,449.690613 1101.553711,453.300110 1097.819214,456.828400 
	C1092.295654,462.047333 1087.256958,467.779633 1082.005859,473.646667 
	C1070.312378,474.000000 1058.624878,474.000000 1046.468628,474.000000 
z"/>
<path fill="#1779C5" opacity="1.000000" stroke="none" 
	d="
M2101.468750,474.000000 
	C2099.808105,472.644592 2098.687500,471.218109 2097.414307,469.944061 
	C2055.372070,427.875946 2013.331665,385.806000 1971.215088,343.812347 
	C1968.935547,341.539490 1967.923828,339.316559 1967.928589,336.047546 
	C1968.023926,270.408112 1968.025757,204.768478 1967.927246,139.129074 
	C1967.922119,135.677048 1969.014648,133.355621 1971.431152,130.946976 
	C2014.617432,87.903816 2057.709961,44.766693 2100.911377,1.324905 
	C2180.020752,1.000000 2259.041748,1.000000 2338.531250,1.000008 
	C2345.724121,7.897073 2352.578613,14.675040 2359.078613,21.777222 
	C2360.652588,23.496975 2361.777344,26.258036 2361.870361,28.589645 
	C2362.201660,36.907249 2362.209473,45.254772 2361.865234,53.571358 
	C2361.769287,55.889214 2360.549072,58.609516 2358.963379,60.335083 
	C2353.556641,66.218170 2347.625000,71.616371 2342.167236,77.455559 
	C2339.698486,80.097084 2337.169189,81.088242 2333.528564,81.083694 
	C2247.221191,80.975906 2160.913818,81.020111 2074.606445,80.928894 
	C2071.030518,80.925117 2068.416260,81.742088 2065.919678,84.441452 
	C2059.826904,91.028740 2051.014160,96.306114 2047.787354,103.995422 
	C2044.631836,111.514771 2047.005737,121.367264 2047.004761,130.195648 
	C2046.996704,209.005234 2047.020874,287.814850 2046.928955,366.624298 
	C2046.925049,370.030121 2047.695312,372.519165 2050.256104,374.885376 
	C2055.514160,379.743561 2060.619385,384.794281 2065.456543,390.069397 
	C2068.140625,392.996368 2070.915527,394.100555 2074.933350,394.094757 
	C2161.073730,393.969971 2247.214600,394.019012 2333.355225,393.932434 
	C2336.913818,393.928864 2339.545898,394.702454 2342.056152,397.411835 
	C2348.492432,404.358490 2357.785645,409.940247 2361.181641,418.057159 
	C2364.508545,426.007721 2361.805908,436.418671 2362.082764,445.739868 
	C2362.186035,449.203735 2361.143799,451.599670 2358.659912,453.966064 
	C2352.029297,460.284088 2345.654053,466.870544 2339.088623,473.675171 
	C2259.979248,474.000000 2180.958252,474.000000 2101.468750,474.000000 
z"/>
<path fill="#1779C5" opacity="1.000000" stroke="none" 
	d="
M2659.468750,474.000000 
	C2652.389648,467.222321 2645.887695,460.333405 2639.109619,453.727814 
	C2636.761963,451.439789 2635.935059,449.130981 2635.937256,445.909729 
	C2636.012451,333.592285 2635.977295,221.274796 2636.092773,108.957458 
	C2636.096924,104.948112 2634.999756,102.179443 2632.086914,99.471497 
	C2625.746826,93.577370 2620.733887,84.901360 2613.333496,81.878319 
	C2605.749756,78.780312 2595.965820,81.014153 2587.144775,81.009415 
	C2547.150391,80.987907 2507.156250,80.968277 2467.162109,81.060257 
	C2463.965088,81.067612 2461.596436,80.353035 2459.327393,77.934242 
	C2452.731934,70.903656 2443.293213,65.205650 2439.833740,56.947426 
	C2436.444580,48.856209 2438.827637,38.253704 2439.140869,28.768669 
	C2439.222168,26.303427 2440.468506,23.370707 2442.152588,21.554588 
	C2448.491699,14.717915 2455.232422,8.253515 2461.911377,1.324875 
	C2604.354248,1.000000 2746.708252,1.000000 2889.531250,0.999989 
	C2896.491455,7.653736 2903.085938,14.212325 2909.394287,21.035336 
	C2910.783447,22.537998 2911.829834,24.960472 2911.885010,26.990652 
	C2912.143555,36.477520 2912.106445,45.977657 2911.903076,55.467232 
	C2911.865723,57.209450 2910.573242,58.926376 2909.846436,60.649296 
	C2909.786377,60.792049 2909.624023,60.892590 2909.506104,61.009880 
	C2902.895264,67.583748 2897.342041,76.682518 2889.375488,80.020248 
	C2881.425293,83.351044 2871.057129,80.980980 2861.749023,80.987747 
	C2822.107666,81.016563 2782.466064,80.946838 2742.825439,81.128784 
	C2740.382568,81.139992 2737.448730,82.450485 2735.603027,84.111725 
	C2730.040283,89.118980 2725.030029,94.736000 2719.543457,99.834091 
	C2716.894775,102.295273 2715.913330,104.830734 2715.916748,108.470276 
	C2716.018555,220.731842 2715.982178,332.993500 2716.076904,445.255096 
	C2716.080078,449.035828 2715.069336,451.718872 2712.298828,454.325745 
	C2705.753174,460.484833 2699.530518,466.987030 2693.088623,473.675232 
	C2681.979248,474.000000 2670.958252,474.000000 2659.468750,474.000000 
z"/>
<path fill="#FFFFFF" opacity="1.000000" stroke="none" 
	d="
M4774.531250,1.000065 
	C4773.808594,2.355567 4772.687988,3.782277 4771.414551,5.056325 
	C4729.372070,47.124065 4687.331543,89.193886 4645.214844,131.187424 
	C4642.935547,133.460602 4641.923828,135.683823 4641.928711,138.952408 
	C4642.023926,204.591812 4642.030762,270.231445 4641.914062,335.870789 
	C4641.907715,339.368042 4643.053223,341.663330 4645.440430,344.043762 
	C4688.613770,387.099945 4731.709961,430.233398 4774.911133,473.675140 
	C4660.312500,474.000000 4545.625000,474.000000 4430.557617,473.675110 
	C4473.750488,429.765045 4517.344238,386.199799 4560.819824,342.517212 
	C4562.464355,340.864685 4563.867188,338.076111 4563.870117,335.814697 
	C4564.019531,232.873291 4564.014160,129.931625 4563.894531,26.990095 
	C4563.892090,24.980015 4562.784668,22.539841 4561.395020,21.037169 
	C4555.086426,14.213501 4548.491699,7.654230 4542.000000,0.999997 
	C4619.354004,1.000000 4696.708496,1.000000 4774.531250,1.000065 
z"/>
<path fill="#1779C5" opacity="1.000000" stroke="none" 
	d="
M4541.531250,0.999997 
	C4548.491699,7.654230 4555.086426,14.213501 4561.395020,21.037169 
	C4562.784668,22.539841 4563.892090,24.980015 4563.894531,26.990095 
	C4564.014160,129.931625 4564.019531,232.873291 4563.870117,335.814697 
	C4563.867188,338.076111 4562.464355,340.864685 4560.819824,342.517212 
	C4517.344238,386.199799 4473.750488,429.765045 4430.088867,473.675110 
	C4361.979004,474.000000 4293.958496,474.000000 4225.468750,474.000061 
	C4223.808105,472.644379 4222.687500,471.217346 4221.414062,469.943146 
	C4179.011230,427.512024 4136.612793,385.076599 4094.127197,342.728577 
	C4091.813721,340.422546 4090.915527,338.152496 4090.932617,334.923950 
	C4091.057373,311.263092 4091.065674,287.600830 4090.924561,263.940155 
	C4090.905029,260.662109 4091.879395,258.390198 4094.223877,256.173553 
	C4099.791016,250.910416 4104.953125,245.209900 4110.636719,240.082397 
	C4112.477539,238.421616 4115.398438,237.237747 4117.878418,237.136566 
	C4126.528809,236.783615 4135.207031,236.849899 4143.863770,237.110352 
	C4145.911621,237.171967 4147.924805,238.598251 4149.937012,239.436432 
	C4150.218262,239.553757 4150.402344,239.901901 4150.635742,240.139252 
	C4157.390625,247.017227 4166.715820,252.819611 4170.170898,261.077637 
	C4173.556641,269.171265 4170.991211,279.764191 4170.996094,289.260101 
	C4171.008789,315.254486 4170.918457,341.249512 4171.133301,367.242126 
	C4171.153320,369.683807 4172.485352,372.612549 4174.158203,374.451019 
	C4179.533691,380.360046 4185.241211,385.986145 4191.083984,391.438843 
	C4192.573730,392.829224 4195.037598,393.893738 4197.055664,393.896515 
	C4284.037109,394.016693 4371.018066,394.016876 4457.999512,393.894745 
	C4460.011230,393.891937 4462.478516,392.802490 4463.953125,391.399811 
	C4470.708496,384.973633 4479.716309,379.313202 4483.048828,371.343140 
	C4486.375977,363.385101 4483.988281,353.009155 4483.989746,343.693115 
	C4484.005859,238.882477 4484.017578,134.071823 4483.922363,29.261259 
	C4483.919434,25.812790 4484.853027,23.402842 4487.337891,21.035480 
	C4493.969727,14.717315 4500.345215,8.129951 4506.911133,1.324818 
	C4518.354004,1.000000 4529.708496,1.000000 4541.531250,0.999997 
z"/>
<path fill="#FFFFFF" opacity="1.000000" stroke="none" 
	d="
M5115.000000,134.531296 
	C5114.113281,134.285065 5113.150879,133.645401 5112.350098,132.844681 
	C5068.617188,89.121826 5024.897949,45.385101 4981.088867,1.324935 
	C5025.593750,1.000000 5070.187012,1.000000 5115.000000,1.000000 
	C5115.000000,45.353989 5115.000000,89.708336 5115.000000,134.531296 
z"/>
<path fill="#FFFFFF" opacity="1.000000" stroke="none" 
	d="
M4981.468750,474.000000 
	C4981.714844,473.113098 4982.354492,472.151001 4983.155273,471.349976 
	C5026.878418,427.617157 5070.614746,383.897980 5114.674805,340.088654 
	C5115.000000,384.593628 5115.000000,429.187225 5115.000000,474.000000 
	C5070.645996,474.000000 5026.291992,474.000000 4981.468750,474.000000 
z"/>
<path fill="#FFFFFF" opacity="1.000000" stroke="none" 
	d="
M23.531263,1.000000 
	C16.549934,8.607595 9.099867,16.215191 1.324900,23.911392 
	C1.000000,16.407045 1.000000,8.814090 1.000000,1.000000 
	C8.352704,1.000000 15.707616,1.000000 23.531263,1.000000 
z"/>
<path fill="#FFFFFF" opacity="1.000000" stroke="none" 
	d="
M1.000008,451.468719 
	C8.329380,458.431061 15.658744,465.862152 22.994053,473.646606 
	C15.738759,474.000000 8.477518,474.000000 1.000000,474.000000 
	C1.000000,466.647217 1.000000,459.292358 1.000008,451.468719 
z"/>
<path fill="#FFFFFF" opacity="1.000000" stroke="none" 
	d="
M4736.752441,386.252655 
	C4731.711426,381.144958 4725.064941,377.055328 4722.650879,371.215759 
	C4720.233398,365.367279 4722.006348,357.771179 4722.005371,350.941101 
	C4721.996582,270.113159 4722.026367,189.285202 4721.915039,108.457413 
	C4721.909668,104.807877 4722.917969,102.285004 4725.557617,99.822220 
	C4731.158691,94.596046 4736.319824,88.896416 4741.959473,83.715050 
	C4743.567383,82.237579 4746.198242,81.112923 4748.361328,81.109711 
	C4835.188965,80.981041 4922.016113,80.983688 5008.843750,81.100410 
	C5010.873047,81.103142 5013.364258,82.105026 5014.847656,83.489868 
	C5020.933105,89.172676 5026.832520,95.071030 5032.515137,101.156464 
	C5033.899414,102.639084 5034.896973,105.132469 5034.899902,107.162575 
	C5035.016602,193.656647 5035.019043,280.150909 5034.889648,366.644958 
	C5034.886719,368.807770 5033.767090,371.451233 5032.282227,373.045074 
	C5026.379395,379.381012 5020.231445,385.502167 5013.921387,391.433990 
	C5012.437500,392.828339 5009.968262,393.893402 5007.950684,393.896210 
	C4921.289551,394.016785 4834.628906,393.964905 4747.967773,394.078918 
	C4742.185059,394.086517 4740.661621,388.996826 4736.752441,386.252655 
z"/>
<path fill="#FFFFFF" opacity="1.000000" stroke="none" 
	d="
M3791.000000,394.000000 
	C3743.005127,394.000000 3695.510254,393.968414 3648.015625,394.069305 
	C3644.764893,394.076233 3642.462158,393.196167 3640.224365,390.830261 
	C3634.615723,384.900574 3628.850342,379.106598 3622.911865,373.508331 
	C3620.630127,371.357452 3619.940186,369.142944 3619.942627,366.112579 
	C3620.014160,280.288513 3619.978516,194.464325 3620.116943,108.640404 
	C3620.120605,106.334641 3621.309082,103.524666 3622.885010,101.817818 
	C3628.758789,95.457108 3634.931641,89.360680 3641.216553,83.401680 
	C3642.589844,82.099754 3644.888672,81.099426 3646.762939,81.097015 
	C3733.586670,80.985481 3820.410889,80.985481 3907.234619,81.097000 
	C3909.109131,81.099403 3911.408203,82.098099 3912.781738,83.399719 
	C3919.188965,89.471695 3925.454834,95.706329 3931.497314,102.139893 
	C3932.885986,103.618378 3933.896240,106.110489 3933.898926,108.137825 
	C3934.016357,194.295120 3934.018799,280.452606 3933.891113,366.609863 
	C3933.887939,368.776459 3932.789307,371.428040 3931.306641,373.019958 
	C3925.519043,379.234802 3919.235840,384.986908 3913.427002,391.183044 
	C3911.236816,393.519165 3908.958008,394.051056 3905.987305,394.045685 
	C3867.824951,393.976562 3829.662354,394.000000 3791.000000,394.000000 
z"/>
<path fill="#F2561D" opacity="1.000000" stroke="none" 
	d="
M317.000000,189.122055 
	C317.000000,222.747665 316.954193,255.892090 317.071899,289.035919 
	C317.083496,292.297394 316.147614,294.579132 313.799500,296.805054 
	C307.879303,302.417206 302.336731,308.431793 296.341156,313.957794 
	C294.619385,315.544708 291.874451,316.861481 289.591156,316.873413 
	C254.782333,317.055389 219.972076,317.040039 185.162872,316.897766 
	C183.132172,316.889435 180.642075,315.903687 179.161362,314.520874 
	C173.079895,308.841553 167.186371,302.944641 161.505844,296.864197 
	C160.120636,295.381439 159.111420,292.900726 159.103302,290.874176 
	C158.960464,255.232193 158.966476,219.589355 159.093643,183.947250 
	C159.100388,182.058075 159.993591,179.729553 161.279358,178.363464 
	C167.097031,172.182465 173.108231,166.172226 179.281784,160.346375 
	C180.652420,159.052933 182.960892,158.103668 184.841660,158.096649 
	C219.984055,157.965103 255.127228,157.964157 290.269592,158.099808 
	C292.141022,158.107040 294.419220,159.121506 295.802948,160.419022 
	C301.387909,165.655991 306.451385,171.466431 312.191895,176.514221 
	C316.079315,179.932541 317.806366,183.639328 317.000000,189.122055 
z"/>
</svg>