<svg id="svg" version="1.1" xmlns="http://www.w3.org/2000/svg"
   xmlns:xlink="http://www.w3.org/1999/xlink" width="160" height="100"
   viewBox="0, 0, 400, 45">
   <g id="svgg">
      <path id="path0"
         d="M0.701 0.715 L -0.000 1.429 -0.000 12.275 L -0.000 23.121 0.826 23.894 L 1.652 24.667 3.124 24.667 L 4.595 24.667 5.464 23.786 L 6.333 22.906 6.333 15.489 L 6.333 8.072 7.214 7.203 L 8.094 6.333 18.393 6.333 L 28.693 6.333 29.680 7.192 L 30.667 8.050 30.667 18.417 L 30.667 28.783 29.680 29.642 L 28.693 30.500 15.132 30.500 L 1.571 30.500 0.785 31.297 L -0.000 32.095 -0.000 33.736 L -0.000 35.377 0.728 36.105 L 1.456 36.833 14.077 36.833 L 26.699 36.833 31.849 31.680 L 37.000 26.527 37.000 18.417 L 37.000 10.307 31.849 5.153 L 26.699 -0.000 14.051 -0.000 L 1.403 0.000 0.701 0.715 M48.125 5.137 L 43.000 10.266 43.002 18.425 L 43.004 26.583 48.139 31.708 L 53.275 36.833 62.852 36.833 L 72.429 36.833 73.215 36.036 L 74.000 35.239 74.000 33.779 L 74.000 32.319 73.042 31.416 L 72.083 30.512 61.689 30.506 L 51.295 30.500 50.314 29.650 L 49.333 28.800 49.333 26.103 L 49.333 23.405 50.214 22.536 L 51.094 21.667 58.593 21.667 L 66.093 21.667 66.963 20.678 L 67.833 19.689 67.828 18.386 L 67.823 17.083 66.929 16.125 L 66.035 15.167 58.614 15.167 L 51.194 15.167 50.263 14.317 L 49.333 13.467 49.333 10.769 L 49.333 8.072 50.214 7.203 L 51.094 6.333 61.589 6.327 L 72.083 6.321 73.042 5.418 L 74.000 4.514 74.000 3.043 L 74.000 1.571 73.203 0.785 L 72.405 0.000 62.828 0.004 L 53.250 0.007 48.125 5.137 M85.035 5.182 L 79.833 10.364 79.833 22.777 L 79.833 35.191 80.625 36.011 L 81.417 36.832 83.049 36.832 L 84.681 36.833 85.507 36.061 L 86.333 35.288 86.333 29.332 L 86.333 23.376 87.162 22.521 L 87.990 21.667 95.448 21.667 L 102.907 21.667 103.870 20.714 L 104.833 19.760 104.833 18.417 L 104.833 17.073 103.870 16.120 L 102.907 15.167 95.448 15.167 L 87.990 15.167 87.162 14.312 L 86.333 13.457 86.333 10.765 L 86.333 8.072 87.214 7.203 L 88.094 6.333 98.598 6.333 L 109.102 6.333 109.967 5.420 L 110.833 4.506 110.832 3.045 L 110.830 1.583 110.100 0.792 L 109.369 -0.000 99.803 -0.000 L 90.237 0.000 85.035 5.182 M124.970 2.084 C 123.841 3.231,121.548 5.547,119.875 7.232 L 116.833 10.295 116.833 18.420 L 116.833 26.545 121.292 31.022 C 123.744 33.484,126.031 35.799,126.375 36.166 L 127.000 36.833 136.590 36.833 L 146.181 36.833 147.007 36.061 L 147.833 35.288 147.833 33.840 L 147.833 32.392 146.895 31.446 L 145.957 30.500 135.543 30.500 L 125.129 30.500 124.148 29.650 L 123.167 28.800 123.167 26.084 L 123.167 23.367 124.097 22.517 L 125.027 21.667 132.500 21.667 L 139.972 21.667 140.817 20.708 L 141.662 19.750 141.662 18.417 L 141.662 17.083 140.817 16.125 L 139.972 15.167 132.500 15.167 L 125.027 15.167 124.097 14.317 L 123.167 13.467 123.167 10.750 L 123.167 8.033 124.148 7.183 L 125.129 6.333 135.531 6.333 L 145.933 6.333 146.883 5.413 L 147.833 4.493 147.833 3.032 L 147.833 1.571 147.036 0.785 L 146.239 0.000 136.631 0.000 L 127.024 0.000 124.970 2.084 M158.881 5.123 L 153.845 10.250 153.844 18.417 L 153.843 26.583 158.929 31.708 L 164.016 36.833 173.596 36.833 L 183.175 36.833 183.921 36.088 L 184.667 35.342 184.667 33.790 L 184.667 32.239 183.786 31.369 L 182.906 30.500 172.406 30.500 L 161.905 30.500 161.036 29.620 L 160.167 28.740 160.167 18.406 L 160.167 8.072 161.047 7.203 L 161.927 6.333 172.428 6.333 L 182.928 6.333 183.797 5.453 L 184.667 4.573 184.667 3.014 L 184.667 1.456 183.939 0.728 L 183.211 0.000 173.564 -0.002 L 163.917 -0.003 158.881 5.123 M191.452 0.797 L 190.667 1.595 190.667 3.044 L 190.667 4.493 191.617 5.413 L 192.567 6.333 198.414 6.333 L 204.261 6.333 205.131 7.214 L 206.000 8.094 206.000 21.691 L 206.000 35.288 206.826 36.061 L 207.652 36.833 209.250 36.833 L 210.848 36.833 211.674 36.061 L 212.500 35.288 212.500 21.650 L 212.500 8.012 213.375 7.173 L 214.250 6.334 220.061 6.334 L 225.872 6.333 226.865 5.414 L 227.858 4.495 227.871 3.071 L 227.885 1.647 227.074 0.823 L 226.263 0.000 209.250 -0.000 L 192.237 -0.000 191.452 0.797 M234.493 0.773 L 233.667 1.546 233.667 12.249 L 233.667 22.952 234.573 23.809 L 235.480 24.667 236.921 24.667 L 238.361 24.667 239.264 23.805 L 240.167 22.944 240.167 15.508 L 240.167 8.072 241.047 7.203 L 241.927 6.333 252.339 6.336 L 262.750 6.339 263.542 7.082 L 264.333 7.824 264.333 18.392 L 264.333 28.960 263.432 29.730 L 262.530 30.500 249.057 30.506 L 235.583 30.512 234.625 31.416 L 233.667 32.319 233.667 33.803 L 233.667 35.288 234.493 36.061 L 235.319 36.833 247.951 36.833 L 260.583 36.832 265.792 31.630 L 271.000 26.428 271.000 18.391 L 271.000 10.353 265.792 5.180 L 260.583 0.007 247.951 0.003 L 235.319 -0.000 234.493 0.773 M281.957 5.126 L 276.833 10.252 276.833 18.423 L 276.833 26.593 281.971 31.713 L 287.109 36.833 295.396 36.833 L 303.683 36.833 308.842 31.674 L 314.000 26.515 314.000 18.409 L 314.000 10.303 308.840 5.152 L 303.679 0.000 295.380 0.000 L 287.081 0.000 281.957 5.126 M351.452 0.797 L 350.667 1.595 350.667 15.198 L 350.667 28.800 349.686 29.650 L 348.705 30.500 338.388 30.500 L 328.072 30.500 327.203 29.620 L 326.333 28.740 326.333 24.431 L 326.333 20.122 325.381 19.144 L 324.429 18.167 323.083 18.167 L 321.738 18.167 320.786 19.144 L 319.833 20.122 319.833 23.302 L 319.833 26.482 324.975 31.657 L 330.116 36.833 338.419 36.833 L 346.722 36.833 351.858 31.708 L 356.995 26.583 356.996 14.083 L 356.996 1.583 356.266 0.792 L 355.536 0.000 353.887 0.000 L 352.237 -0.000 351.452 0.797 M368.125 5.162 L 363.000 10.307 363.000 18.416 L 363.000 26.524 368.152 31.679 L 373.304 36.833 381.528 36.833 L 389.752 36.833 394.876 31.707 L 400.000 26.581 400.000 18.310 L 400.000 10.038 394.898 5.019 L 389.795 -0.000 381.523 0.008 L 373.250 0.017 368.125 5.162 M306.680 7.192 L 307.667 8.050 307.667 18.417 L 307.667 28.783 306.680 29.642 L 305.693 30.500 295.393 30.500 L 285.094 30.500 284.214 29.631 L 283.333 28.761 283.333 18.359 L 283.333 7.957 284.125 7.155 L 284.917 6.353 295.305 6.343 L 305.693 6.333 306.680 7.192 M392.786 7.203 L 393.667 8.072 393.667 18.406 L 393.667 28.740 392.797 29.620 L 391.928 30.500 381.618 30.500 L 371.307 30.500 370.320 29.642 L 369.333 28.783 369.331 18.433 L 369.329 8.083 370.289 7.215 L 371.250 6.346 381.578 6.340 L 391.906 6.333 392.786 7.203 "
         stroke="none" fill="#147cc4" fill-rule="evenodd"></path>
      <path id="path1"
         d="M13.006 13.042 L 12.167 13.917 12.167 18.417 L 12.167 22.917 13.006 23.792 L 13.846 24.667 18.433 24.667 L 23.020 24.667 23.927 23.809 L 24.833 22.952 24.833 18.417 L 24.833 13.882 23.927 13.024 L 23.020 12.167 18.433 12.167 L 13.846 12.167 13.006 13.042 "
         stroke="none" fill="#f4541c" fill-rule="evenodd"></path>
      <path id="path2"
         d="M227.889 3.167 C 227.889 3.854,227.919 4.135,227.955 3.792 C 227.991 3.448,227.991 2.885,227.955 2.542 C 227.919 2.198,227.889 2.479,227.889 3.167 "
         stroke="none" fill="#4c68c8" fill-rule="evenodd"></path>
   </g>
</svg>