<svg version="1.1" id="Layer_1" xmlns="http://www.w3.org/2000/svg" xmlns:xlink="http://www.w3.org/1999/xlink" x="0px" y="0px"
	 width="100%" viewBox="0 0 1042 1043" enable-background="new 0 0 1042 1043" xml:space="preserve">
<path fill="#167ABF" opacity="1.000000" stroke="none" 
	d="
M1.000000,350.000000 
	C1.000000,233.729309 1.000000,117.458603 1.000000,1.000000 
	C150.689941,1.000000 300.379944,1.000000 450.624084,1.325065 
	C452.706238,3.187184 454.229126,4.729396 455.763031,6.260583 
	C644.143372,194.309464 832.524658,382.357300 1020.904785,570.406372 
	C1027.035767,576.526733 1033.142212,582.671875 1039.291138,588.774170 
	C1040.451660,589.925781 1041.759888,590.928528 1043.000000,592.000000 
	C1043.000000,742.585754 1043.000000,893.171448 1043.000000,1044.000000 
	C926.976807,1044.000000 810.953430,1044.000000 694.465027,1043.531372 
	C694.000000,847.566406 693.990845,652.070007 694.071960,456.573700 
	C694.073486,452.986603 693.125061,450.470764 690.537781,447.899933 
	C659.090515,416.653107 627.732849,385.315704 596.484863,353.869690 
	C593.680786,351.047791 590.972412,349.909821 586.986877,349.911865 
	C391.657959,350.012543 196.328979,350.000000 1.000000,350.000000 
z"/>
<path fill="#FFFFFF" opacity="1.000000" stroke="none" 
	d="
M1.000000,350.468658 
	C196.328979,350.000000 391.657959,350.012543 586.986877,349.911865 
	C590.972412,349.909821 593.680786,351.047791 596.484863,353.869690 
	C627.732849,385.315704 659.090515,416.653107 690.537781,447.899933 
	C693.125061,450.470764 694.073486,452.986603 694.071960,456.573700 
	C693.990845,652.070007 694.000000,847.566406 694.000000,1043.531372 
	C579.645752,1044.000000 465.291534,1044.000000 350.468658,1043.531372 
	C350.000000,962.398804 349.982452,881.734924 350.064148,801.071045 
	C350.067444,797.844971 349.187958,795.573364 346.872620,793.269226 
	C315.096283,761.646240 283.398682,729.943970 251.772446,698.170837 
	C249.484528,695.872314 247.238586,694.928345 243.989288,694.931824 
	C162.992920,695.018677 81.996452,695.000000 1.000000,695.000000 
	C1.000000,580.312439 1.000000,465.624878 1.000000,350.468658 
z"/>
<path fill="#FFFFFF" opacity="1.000000" stroke="none" 
	d="
M1043.000000,591.531372 
	C1041.759888,590.928528 1040.451660,589.925781 1039.291138,588.774170 
	C1033.142212,582.671875 1027.035767,576.526733 1020.904785,570.406372 
	C832.524658,382.357300 644.143372,194.309464 455.763031,6.260583 
	C454.229126,4.729396 452.706238,3.187184 451.089111,1.325065 
	C648.260376,1.000000 845.520752,1.000000 1043.000000,1.000000 
	C1043.000000,197.687500 1043.000000,394.375092 1043.000000,591.531372 
z"/>
<path fill="#F15722" opacity="1.000000" stroke="none" 
	d="
M1.000000,695.468628 
	C81.996452,695.000000 162.992920,695.018677 243.989288,694.931824 
	C247.238586,694.928345 249.484528,695.872314 251.772446,698.170837 
	C283.398682,729.943970 315.096283,761.646240 346.872620,793.269226 
	C349.187958,795.573364 350.067444,797.844971 350.064148,801.071045 
	C349.982452,881.734924 350.000000,962.398804 350.000000,1043.531372 
	C233.739594,1044.000000 117.479187,1044.000000 1.000000,1044.000000 
	C1.000000,927.979187 1.000000,811.958252 1.000000,695.468628 
z"/>
</svg>